<?xml version="1.0" encoding="UTF-8" standalone="no"?>
<svg width="100px" height="100px" viewBox="0 0 100 100" version="1.1" xmlns="http://www.w3.org/2000/svg" xmlns:xlink="http://www.w3.org/1999/xlink" xmlns:sketch="http://www.bohemiancoding.com/sketch/ns">
    <!-- Generator: Sketch 3.3.2 (12043) - http://www.bohemiancoding.com/sketch -->
    <title>mobilPlus-clients-advetisers-9</title>
    <desc>Created with Sketch.</desc>
    <defs></defs>
    <g id="utilities" stroke="none" stroke-width="1" fill="none" fill-rule="evenodd" sketch:type="MSPage">
        <g id="mobilPlus-clients-advetisers-9" sketch:type="MSArtboardGroup">
            <rect id="Rectangle-52" fill="#979797" sketch:type="MSShapeGroup" x="0" y="0" width="100" height="100"></rect>
            <g id="Fill-1-+-Fill-2-+-Group" sketch:type="MSLayerGroup" transform="translate(25.000000, 14.000000)" fill="#FFFFFF">
                <g id="Fill-1-+-Fill-2" transform="translate(0.803030, 0.000000)" sketch:type="MSShapeGroup">
                    <path d="M36.6275923,5.03180682 C41.8750189,8.39928409 49.427268,18.9076894 51.4580563,24.7158598 C49.427268,30.5321174 41.8750189,41.0194962 36.6275923,44.3999129 L36.6275923,5.03180682" id="Fill-1"></path>
                    <path d="M25.4036127,12.4946023 C28.1423224,12.4946023 31.6395194,13.5766591 34.3896473,15.5224205 L34.3896473,3.67478788 C31.6493063,1.98619697 28.3217495,0.997950758 24.4216572,0.997950758 C11.1946188,0.997950758 0.497502367,11.6163409 0.497502367,24.7158598 C0.497502367,37.8283182 11.1946188,48.4030379 24.4216572,48.4030379 C28.3217495,48.4030379 31.6493063,47.4519924 34.3896473,45.7569318 L34.3896473,33.8785682 C31.6395194,35.825947 28.1423224,36.9338826 25.4036127,36.9338826 C17.960651,36.9338826 12.4897562,31.544625 12.4897562,24.7158598 C12.4897562,17.8547462 17.960651,12.4946023 25.4036127,12.4946023" id="Fill-2"></path>
                </g>
                <g id="Group" transform="translate(0.000000, 55.681818)" sketch:type="MSShapeGroup">
                    <path d="M40.5260714,7.0754912 L40.5260714,13.9902493 L42.9522411,13.9902493 L42.9522411,7.20989736 C42.9522411,6.26074047 43.7477143,5.49910557 44.7055,5.49910557 L45.8265446,5.49910557 L45.8265446,3.23960411 L44.5848304,3.23637097 C42.3919554,3.25854106 40.6145625,4.94069648 40.5260714,7.0754912" id="Fill-3"></path>
                    <path d="M51.2670893,11.7228959 C50.3059911,11.7228959 49.5204554,10.9483284 49.5190357,10.0116422 L49.5190357,5.48802053 L52.2016875,5.48802053 L52.2016875,3.22667155 L49.5190357,3.22667155 L49.5190357,1.09926686 L47.0805625,1.09926686 L47.0805625,10.1418915 C47.1695268,12.2808431 48.9630089,13.9588416 51.1431071,13.9833211 L52.3876607,13.9810117 L52.3876607,11.7228959 L51.2670893,11.7228959" id="Fill-4"></path>
                    <path d="M22.1066786,3.02667889 C20.9004554,3.02667889 19.7548036,3.56430352 19.0009732,4.46450147 C18.2532946,3.56430352 17.0962857,3.02667889 15.8853304,3.02667889 C13.7705357,3.02667889 12.0153839,4.63955279 11.9022857,6.70321848 L11.9008661,13.9902493 L14.3450179,13.9902493 L14.3450179,6.9997434 C14.3450179,6.02241202 15.0974286,5.26585777 16.0585268,5.26585777 C16.8502143,5.26585777 17.7843393,5.79054985 17.7843393,7.2768695 L17.7843393,13.9902493 L20.2185536,13.9902493 L20.2185536,7.2708651 C20.2185536,5.89170088 21.1067768,5.26585777 21.9349018,5.26585777 C22.9575179,5.26585777 23.657875,5.97483871 23.657875,6.9997434 L23.657875,13.9902493 L26.0901964,13.9902493 L26.0901964,6.70968475 C25.9662143,4.63955279 24.2243125,3.02667889 22.1066786,3.02667889" id="Fill-5"></path>
                    <path d="M33.2404643,3.05162023 C30.0912232,3.05162023 27.6205714,5.48293988 27.6205714,8.60153226 C27.6205714,11.8577639 30.0041518,14.2147214 33.2858929,14.2147214 C34.5607321,14.2147214 35.7040179,13.7537683 36.4251964,12.9782771 L36.4251964,13.9888636 L38.8565714,13.9884018 L38.8565714,8.6444868 C38.8565714,5.39934018 36.4871875,3.05162023 33.2404643,3.05162023 M33.2735893,11.9344355 C31.4502946,11.9344355 29.9724464,10.4448827 29.9724464,8.63571114 C29.9724464,6.82423021 31.4502946,5.34068182 33.2735893,5.34068182 C35.0869464,5.34068182 36.5619554,6.82423021 36.5619554,8.63571114 C36.5619554,10.5718988 35.2114018,11.9344355 33.2735893,11.9344355" id="Fill-6"></path>
                    <path d="M6.22939286,7.55815249 C3.87325893,7.29164956 3.40146429,6.8801173 3.40146429,6.25196481 C3.40146429,5.25985337 4.94319643,5.13098974 5.62273214,5.13098974 C6.78873214,5.13098974 7.94100893,5.57762463 8.76298214,6.26489736 L10.3127589,4.75456012 C9.69284821,4.25480938 8.20932143,3.04884897 5.26119643,3.04884897 C2.35234821,3.04884897 0.786482143,4.7688783 0.786482143,6.39514663 C0.786482143,8.31840176 2.3154375,9.41443548 5.46799107,9.74883431 C6.79299107,9.89016862 7.79336607,10.0698387 7.79336607,10.9681891 C7.79336607,12.6267889 3.53254464,12.461437 1.82234821,10.6157771 L0.132973214,12.2757625 C0.292446429,12.4526613 2.27663393,14.2345821 5.25267857,14.2345821 C8.80273214,14.2345821 10.4140268,12.5367229 10.4140268,10.9506378 C10.4140268,8.95856305 9.08713393,7.87961877 6.22939286,7.55815249" id="Fill-7"></path>
                    <path d="M52.1430089,1.3177346 C52.0971071,1.22766862 52.0223393,1.06785924 51.9452054,1.01936217 C52.0360625,0.995344575 52.1349643,0.897426686 52.1349643,0.760249267 C52.1349643,0.727456012 52.1150893,0.488203812 51.8306875,0.488203812 L51.2789196,0.488203812 L51.2789196,0.633695015 L51.4194643,0.633695015 L51.4194643,1.3177346 L51.2789196,1.3177346 L51.2789196,1.46368768 L51.7365179,1.46368768 L51.7365179,1.3177346 L51.5817768,1.3177346 L51.5817768,1.04938416 L51.7298929,1.04938416 C51.8567143,1.09557185 51.9347946,1.24475806 52.0341696,1.46368768 L52.2688839,1.46368768 L52.2688839,1.3177346 L52.1430089,1.3177346 M51.5817768,0.633695015 L51.8250089,0.633695015 C51.9541964,0.633695015 51.9679196,0.720527859 51.9679196,0.763020528 C51.9679196,0.852624633 51.887,0.905278592 51.7668036,0.905278592 L51.5817768,0.905278592 L51.5817768,0.633695015" id="Fill-8"></path>
                    <path d="M51.7497679,0.0526539589 C51.2273393,0.0526539589 50.8028661,0.466495601 50.8028661,0.976869501 C50.8028661,1.4872434 51.2273393,1.90108504 51.7497679,1.90108504 C52.2721964,1.90108504 52.6966696,1.4872434 52.6966696,0.976869501 C52.6966696,0.466495601 52.2721964,0.0526539589 51.7497679,0.0526539589 M51.7497679,1.7264956 C51.3248214,1.7264956 50.9803214,1.39117302 50.9803214,0.976869501 C50.9803214,0.562565982 51.3248214,0.226319648 51.7497679,0.226319648 C52.1742411,0.226319648 52.5182679,0.562565982 52.5182679,0.976869501 C52.5182679,1.39117302 52.1742411,1.7264956 51.7497679,1.7264956" id="Fill-9"></path>
                </g>
            </g>
        </g>
    </g>
</svg>