<?xml version="1.0" encoding="UTF-8" standalone="no"?>
<svg width="100px" height="100px" viewBox="0 0 100 100" version="1.1" xmlns="http://www.w3.org/2000/svg" xmlns:xlink="http://www.w3.org/1999/xlink" xmlns:sketch="http://www.bohemiancoding.com/sketch/ns">
    <!-- Generator: Sketch 3.3.2 (12043) - http://www.bohemiancoding.com/sketch -->
    <title>mobilPlus-clients-advetisers-10</title>
    <desc>Created with Sketch.</desc>
    <defs></defs>
    <g id="utilities" stroke="none" stroke-width="1" fill="none" fill-rule="evenodd" sketch:type="MSPage">
        <g id="mobilPlus-clients-advetisers-10" sketch:type="MSArtboardGroup">
            <rect id="Rectangle-52" fill="#979797" sketch:type="MSShapeGroup" x="0" y="0" width="100" height="100"></rect>
            <g id="Imported-Layers" sketch:type="MSLayerGroup" transform="translate(9.000000, 40.000000)" fill="#FFFFFF">
                <path d="M9.63426064,0.243428571 L9.63426064,20.4767143 C9.63426064,20.4767143 0.359760638,19.662 0.359760638,10.5638571 C0.359760638,1.46571429 9.63426064,0.243428571 9.63426064,0.243428571" id="Fill-1" sketch:type="MSShapeGroup"></path>
                <path d="M11.0013511,0.377142857 L10.9979043,20.6125714 C10.9979043,20.6125714 20.2724043,19.7978571 20.2724043,10.6997143 C20.2724043,1.60157143 11.0013511,0.377142857 11.0013511,0.377142857" id="Fill-2" sketch:type="MSShapeGroup"></path>
                <path d="M21.9092074,7.03328571 L29.8200638,7.03328571 L29.8200638,20.4767143 L21.9092074,20.4767143 L21.9092074,7.03328571 Z" id="Fill-3" sketch:type="MSShapeGroup"></path>
                <path d="M31.0471277,7.101 L31.0471277,12.1932857 L37.5939096,12.1932857 C37.5939096,12.1932857 38.2078723,9.681 36.4349202,8.11971429 C34.6615372,6.558 31.0471277,7.101 31.0471277,7.101" id="Fill-4" sketch:type="MSShapeGroup"></path>
                <path d="M38.4806011,1.194 L46.3910266,1.194 L46.3910266,20.6125714 L38.4806011,20.6125714 L38.4806011,1.194 Z" id="Fill-5" sketch:type="MSShapeGroup"></path>
                <path d="M47.8231755,20.4767143 C47.8231755,20.4767143 56.2114149,21.2237143 56.2114149,13.8227143 C56.2114149,6.42214286 47.8231755,6.89742857 47.8231755,6.89742857 L47.8231755,20.4767143" id="Fill-6" sketch:type="MSShapeGroup"></path>
                <path d="M57.9162926,6.89742857 L65.6905691,6.89742857 L65.6905691,20.4767143 L57.9162926,20.4767143 L57.9162926,6.89742857 Z" id="Fill-7" sketch:type="MSShapeGroup"></path>
                <path d="M57.9162926,1.32985714 L65.6905691,1.32985714 L65.6905691,4.86042857 L57.9162926,4.86042857 L57.9162926,1.32985714 Z" id="Fill-8" sketch:type="MSShapeGroup"></path>
                <path d="M66.5087553,7.101 L69.7138564,7.101 L69.7138564,3.02742857 L77.6927872,3.02742857 L77.6927872,7.101 L80.9659628,7.101 L80.9659628,11.1068571 L77.6927872,11.1068571 L77.6927872,15.0261429 C77.8659894,15.3184286 78.1973138,15.7945714 78.6475532,16.0637143 C79.3295904,16.4708571 80.8298138,16.335 80.8298138,16.335 L80.8298138,20.205 L73.5329202,20.205 C71.9232606,20.0905714 69.7138564,17.3991429 69.7138564,15.2485714 L69.7138564,11.1068571 L66.5087553,11.1068571 L66.5087553,7.101" id="Fill-9" sketch:type="MSShapeGroup"></path>
            </g>
        </g>
    </g>
</svg>