<?xml version="1.0" encoding="UTF-8" standalone="no"?>
<svg width="100px" height="100px" viewBox="0 0 100 100" version="1.1" xmlns="http://www.w3.org/2000/svg" xmlns:xlink="http://www.w3.org/1999/xlink" xmlns:sketch="http://www.bohemiancoding.com/sketch/ns">
    <!-- Generator: Sketch 3.3.2 (12043) - http://www.bohemiancoding.com/sketch -->
    <title>mobilPlus-clients-advetisers-13</title>
    <desc>Created with Sketch.</desc>
    <defs></defs>
    <g id="utilities" stroke="none" stroke-width="1" fill="none" fill-rule="evenodd" sketch:type="MSPage">
        <g id="mobilPlus-clients-advetisers-13" sketch:type="MSArtboardGroup">
            <rect id="Rectangle-52" fill="#979797" sketch:type="MSShapeGroup" x="0" y="0" width="100" height="100"></rect>
            <path d="M25.7447514,48.8696296 L25.7447514,49.8328296 C25.7447514,63.4196741 36.7331073,74.5226074 50.2418192,74.5226074 C61.4821695,74.5226074 70.9585593,66.9178074 73.8315424,56.5756444 L34.5150621,57.0319407 L43.991452,49.6805926 L25.7447514,48.8696296 L25.7447514,48.8696296 Z M26.6516836,43.2422519 C29.5250791,32.7984593 39.0014689,25.1940741 50.2418192,25.1940741 C63.7505311,25.1940741 74.738887,36.2459852 74.738887,49.8328296 L74.738887,51.0494815 L56.4921864,50.2385185 L66.2205706,42.7859556 L26.6516836,43.2422519 L26.6516836,43.2422519 Z M22.5690452,48.7173926 L14,48.3627259 L14,43.3434667 L23.3250282,43.2422519 C26.2990565,31.0749037 37.237096,22 50.2418192,22 C65.514904,22 77.9145932,34.4714074 77.9145932,49.8328296 C77.9145932,50.2891259 77.9145932,50.6948148 77.8642768,51.1511111 L86.4836384,51.5057778 L86.4836384,56.4740148 L77.1586102,56.5756444 C74.1342655,68.6923852 63.2465424,77.7162667 50.2418192,77.7162667 C34.9184181,77.7162667 22.5187288,65.2448593 22.5187288,49.8328296 C22.5187288,49.478163 22.5187288,49.1230815 22.5690452,48.7173926 L22.5690452,48.7173926 Z" id="Imported-Layers" fill="#FFFFFF" sketch:type="MSShapeGroup"></path>
        </g>
    </g>
</svg>