<?xml version="1.0" encoding="UTF-8" standalone="no"?>
<svg width="225px" height="151px" viewBox="0 0 225 151" version="1.1" xmlns="http://www.w3.org/2000/svg" xmlns:xlink="http://www.w3.org/1999/xlink" xmlns:sketch="http://www.bohemiancoding.com/sketch/ns">
    <!-- Generator: Sketch 3.3.2 (12043) - http://www.bohemiancoding.com/sketch -->
    <title>mobilPlus-howDoesGfx-2.2</title>
    <desc>Created with Sketch.</desc>
    <defs></defs>
    <g id="utilities" stroke="none" stroke-width="1" fill="none" fill-rule="evenodd" sketch:type="MSPage">
        <g id="mobilPlus-howDoesGfx-2.2" sketch:type="MSArtboardGroup">
            <rect id="Rectangle-88" stroke="#FFFFFF" stroke-width="2" sketch:type="MSShapeGroup" x="1" y="69" width="223" height="80"></rect>
            <path d="M126,106.621108 L126,111.378147 L109.195623,111.378147 L111.892506,113.640313 L111.892506,119 L100,109.021257 L111.892506,99 L111.892506,104.358941 L109.219393,106.621108 L126,106.621108 Z" id="Fill-5" fill="#FFFFFF" sketch:type="MSShapeGroup"></path>
            <g id="Fill-7-+-Fill-8-+-Fill-11" sketch:type="MSLayerGroup" transform="translate(44.000000, 87.000000)" fill="#FFFFFF">
                <path d="M16.5713056,14.9129936 C14.757815,14.9129936 13.2834615,16.6491545 13.2834615,18.7843754 C13.2834615,20.9181685 14.757815,22.6543293 16.5713056,22.6543293 C18.3840822,22.6543293 19.8591497,20.9181685 19.8591497,18.7843754 C19.8591497,16.6491545 18.3840822,14.9129936 16.5713056,14.9129936 L16.5713056,14.9129936 Z M16.5713056,21.5820787 C15.3496984,21.5820787 14.3551345,20.3270742 14.3551345,18.7843754 C14.3551345,17.2402487 15.3496984,15.9852443 16.5713056,15.9852443 C17.7929128,15.9852443 18.7874768,17.2402487 18.7874768,18.7843754 C18.7874768,20.3270742 17.7929128,21.5820787 16.5713056,21.5820787 L16.5713056,21.5820787 Z" id="Fill-7" sketch:type="MSShapeGroup"></path>
                <path d="M34.3720722,9.56530405 C34.3706442,9.56530405 31.4155113,9.28617621 31.4155113,9.28617621 C30.5308992,9.28617621 29.8112148,10.109996 29.8112148,11.1229944 L29.8112148,34.0436017 C29.8112148,35.0558863 30.5308992,35.8804199 31.4155113,35.8804199 L31.4426423,35.8804199 L34.3206661,35.5713091 C35.2052783,35.5713091 35.9242487,34.7474893 35.9242487,33.7352047 L35.9242487,11.3999806 C35.9242487,10.3884099 35.2067062,9.56530405 34.3720722,9.56530405" id="Fill-8" sketch:type="MSShapeGroup"></path>
                <path d="M37.4200215,3.37309214 L11.2272202,-0.334810627 L11.0651484,-0.344091093 C8.85754491,-0.344091093 7.04476831,1.6005233 6.87055898,4.06341597 L3.58271485,4.06341597 C1.67141001,4.06341597 0.122089326,5.61325365 0.122089326,7.52431559 L0.122089326,37.6108697 C0.122089326,39.5212178 1.67141001,41.0710555 3.58271485,41.0710555 L6.97765488,41.0710555 C7.42602972,43.1684406 9.08601617,44.731842 11.0651484,44.731842 L11.1422575,44.731842 L37.3629037,41.944847 C39.652614,41.9098668 41.5160827,39.7589405 41.5160827,37.1511298 L41.5160827,8.16538157 C41.5160827,5.58327061 39.6818869,3.44233869 37.4200215,3.37309214 L37.4200215,3.37309214 Z M40.0552946,37.1511298 C40.0552946,38.9929452 38.8236917,40.4849584 37.3043579,40.4849584 L11.0644344,43.2712396 C9.54510059,43.2712396 8.31421171,41.7792264 8.31421171,39.937411 L8.31421171,4.45033998 C8.31421171,2.60852459 9.54510059,1.11651135 11.0644344,1.11651135 L37.3043579,4.83083905 C38.8236917,4.83083905 40.0552946,6.32428006 40.0552946,8.16466769 L40.0552946,37.1511298 L40.0552946,37.1511298 Z" id="Fill-9" sketch:type="MSShapeGroup"></path>
            </g>
            <g id="euro-3" sketch:type="MSLayerGroup" transform="translate(140.000000, 89.000000)" stroke="#FFFFFF" stroke-width="2">
                <path d="M20.5,0 C9.17914003,0 0,9.17821552 0,20.5005956 C0,31.8229757 9.17914003,41 20.5,41 C31.8232423,41 41,31.8229757 41,20.5005956 C41,9.17821552 31.8232423,0 20.5,0 L20.5,0 Z" id="Fill-6" sketch:type="MSShapeGroup"></path>
            </g>
            <path d="M113.048,0.816 C103.704,0.816 100.568,1.584 100.568,3.376 L100.568,4.528 L100.952,4.784 C103.064,4.208 107.992,3.888 111.832,3.888 C123.352,3.888 124.056,4.528 124.056,12.016 C124.056,18.928 123.544,19.44 107.16,28.144 C101.784,31.024 99.928,32.624 99.928,40.24 L99.928,46 L127.32,46 L127.32,42.928 L103.576,42.928 L103.576,39.856 C103.576,34.672 104.216,33.52 109.592,30.576 C127.064,20.976 127.832,20.592 127.832,11.824 C127.832,2.288 126.68,0.816 113.048,0.816 L113.048,0.816 Z M140.578667,46 L140.578667,41.2 L135.778667,41.2 L135.778667,46 L140.578667,46 Z" id="2.-3" fill="#FFFFFF" sketch:type="MSShapeGroup"></path>
            <path d="M151.0935,109 L151.0935,100.6 L149.7375,100.6 C149.6895,100.920002 149.589501,101.187999 149.4375,101.404 C149.285499,101.620001 149.099501,101.793999 148.8795,101.926 C148.659499,102.058001 148.411501,102.15 148.1355,102.202 C147.859499,102.254 147.573501,102.276 147.2775,102.268 L147.2775,103.552 L149.3895,103.552 L149.3895,109 L151.0935,109 Z M155.0175,104.764 C155.0175,104.619999 155.0195,104.446001 155.0235,104.242 C155.0275,104.037999 155.0415,103.828001 155.0655,103.612 C155.0895,103.395999 155.1295,103.182001 155.1855,102.97 C155.2415,102.757999 155.3195,102.568001 155.4195,102.4 C155.519501,102.231999 155.647499,102.096001 155.8035,101.992 C155.959501,101.887999 156.153499,101.836 156.3855,101.836 C156.617501,101.836 156.813499,101.887999 156.9735,101.992 C157.133501,102.096001 157.265499,102.231999 157.3695,102.4 C157.473501,102.568001 157.5515,102.757999 157.6035,102.97 C157.6555,103.182001 157.6955,103.395999 157.7235,103.612 C157.7515,103.828001 157.7675,104.037999 157.7715,104.242 C157.7755,104.446001 157.7775,104.619999 157.7775,104.764 C157.7775,105.004001 157.7695,105.293998 157.7535,105.634 C157.7375,105.974002 157.6875,106.301998 157.6035,106.618 C157.5195,106.934002 157.383501,107.203999 157.1955,107.428 C157.007499,107.652001 156.737502,107.764 156.3855,107.764 C156.041498,107.764 155.777501,107.652001 155.5935,107.428 C155.409499,107.203999 155.2755,106.934002 155.1915,106.618 C155.1075,106.301998 155.0575,105.974002 155.0415,105.634 C155.0255,105.293998 155.0175,105.004001 155.0175,104.764 L155.0175,104.764 Z M153.3135,104.764 C153.3135,105.604004 153.395499,106.305997 153.5595,106.87 C153.723501,107.434003 153.945499,107.883998 154.2255,108.22 C154.505501,108.556002 154.831498,108.795999 155.2035,108.94 C155.575502,109.084001 155.969498,109.156 156.3855,109.156 C156.809502,109.156 157.207498,109.084001 157.5795,108.94 C157.951502,108.795999 158.279499,108.556002 158.5635,108.22 C158.847501,107.883998 159.071499,107.434003 159.2355,106.87 C159.399501,106.305997 159.4815,105.604004 159.4815,104.764 C159.4815,103.947996 159.399501,103.262003 159.2355,102.706 C159.071499,102.149997 158.847501,101.704002 158.5635,101.368 C158.279499,101.031998 157.951502,100.792001 157.5795,100.648 C157.207498,100.503999 156.809502,100.432 156.3855,100.432 C155.969498,100.432 155.575502,100.503999 155.2035,100.648 C154.831498,100.792001 154.505501,101.031998 154.2255,101.368 C153.945499,101.704002 153.723501,102.149997 153.5595,102.706 C153.395499,103.262003 153.3135,103.947996 153.3135,104.764 L153.3135,104.764 Z M161.6895,104.764 C161.6895,104.619999 161.6915,104.446001 161.6955,104.242 C161.6995,104.037999 161.7135,103.828001 161.7375,103.612 C161.7615,103.395999 161.8015,103.182001 161.8575,102.97 C161.9135,102.757999 161.9915,102.568001 162.0915,102.4 C162.191501,102.231999 162.319499,102.096001 162.4755,101.992 C162.631501,101.887999 162.825499,101.836 163.0575,101.836 C163.289501,101.836 163.485499,101.887999 163.6455,101.992 C163.805501,102.096001 163.937499,102.231999 164.0415,102.4 C164.145501,102.568001 164.2235,102.757999 164.2755,102.97 C164.3275,103.182001 164.3675,103.395999 164.3955,103.612 C164.4235,103.828001 164.4395,104.037999 164.4435,104.242 C164.4475,104.446001 164.4495,104.619999 164.4495,104.764 C164.4495,105.004001 164.4415,105.293998 164.4255,105.634 C164.4095,105.974002 164.3595,106.301998 164.2755,106.618 C164.1915,106.934002 164.055501,107.203999 163.8675,107.428 C163.679499,107.652001 163.409502,107.764 163.0575,107.764 C162.713498,107.764 162.449501,107.652001 162.2655,107.428 C162.081499,107.203999 161.9475,106.934002 161.8635,106.618 C161.7795,106.301998 161.7295,105.974002 161.7135,105.634 C161.6975,105.293998 161.6895,105.004001 161.6895,104.764 L161.6895,104.764 Z M159.9855,104.764 C159.9855,105.604004 160.067499,106.305997 160.2315,106.87 C160.395501,107.434003 160.617499,107.883998 160.8975,108.22 C161.177501,108.556002 161.503498,108.795999 161.8755,108.94 C162.247502,109.084001 162.641498,109.156 163.0575,109.156 C163.481502,109.156 163.879498,109.084001 164.2515,108.94 C164.623502,108.795999 164.951499,108.556002 165.2355,108.22 C165.519501,107.883998 165.743499,107.434003 165.9075,106.87 C166.071501,106.305997 166.1535,105.604004 166.1535,104.764 C166.1535,103.947996 166.071501,103.262003 165.9075,102.706 C165.743499,102.149997 165.519501,101.704002 165.2355,101.368 C164.951499,101.031998 164.623502,100.792001 164.2515,100.648 C163.879498,100.503999 163.481502,100.432 163.0575,100.432 C162.641498,100.432 162.247502,100.503999 161.8755,100.648 C161.503498,100.792001 161.177501,101.031998 160.8975,101.368 C160.617499,101.704002 160.395501,102.149997 160.2315,102.706 C160.067499,103.262003 159.9855,103.947996 159.9855,104.764 L159.9855,104.764 Z M167.7265,102.574 L167.7265,109 L169.1395,109 L169.1395,106.345 L171.8305,106.345 L171.8305,105.247 L169.1395,105.247 L169.1395,103.762 L172.2445,103.762 L172.2445,102.574 L167.7265,102.574 Z M174.5485,104.347 L174.5485,102.952 L173.2705,102.952 L173.2705,104.347 L172.4965,104.347 L172.4965,105.202 L173.2705,105.202 L173.2705,107.947 C173.2705,108.181001 173.3095,108.369999 173.3875,108.514 C173.4655,108.658001 173.571999,108.769 173.707,108.847 C173.842001,108.925 173.997999,108.9775 174.175,109.0045 C174.352001,109.0315 174.539499,109.045 174.7375,109.045 C174.863501,109.045 174.992499,109.042 175.1245,109.036 C175.256501,109.03 175.376499,109.018 175.4845,109 L175.4845,108.01 C175.4245,108.022 175.3615,108.031 175.2955,108.037 C175.2295,108.043 175.1605,108.046 175.0885,108.046 C174.872499,108.046 174.7285,108.01 174.6565,107.938 C174.5845,107.866 174.5485,107.722001 174.5485,107.506 L174.5485,105.202 L175.4845,105.202 L175.4845,104.347 L174.5485,104.347 Z M153.782,120 L153.782,111.6 L152.426,111.6 C152.378,111.920002 152.278001,112.187999 152.126,112.404 C151.973999,112.620001 151.788001,112.793999 151.568,112.926 C151.347999,113.058001 151.100001,113.15 150.824,113.202 C150.547999,113.254 150.262001,113.276 149.966,113.268 L149.966,114.552 L152.078,114.552 L152.078,120 L153.782,120 Z M158.873,113.574 L158.873,120 L163.751,120 L163.751,118.812 L160.286,118.812 L160.286,117.237 L163.4,117.237 L163.4,116.139 L160.286,116.139 L160.286,114.762 L163.679,114.762 L163.679,113.574 L158.873,113.574 Z M168.935,120 L168.935,115.347 L167.657,115.347 L167.657,117.786 C167.657,118.260002 167.579001,118.600499 167.423,118.8075 C167.266999,119.014501 167.015002,119.118 166.667,119.118 C166.360998,119.118 166.148001,119.023501 166.028,118.8345 C165.907999,118.645499 165.848,118.359002 165.848,117.975 L165.848,115.347 L164.57,115.347 L164.57,118.209 C164.57,118.497001 164.5955,118.759499 164.6465,118.9965 C164.6975,119.233501 164.785999,119.434499 164.912,119.5995 C165.038001,119.764501 165.210499,119.892 165.4295,119.982 C165.648501,120.072 165.928998,120.117 166.271,120.117 C166.541001,120.117 166.804999,120.057001 167.063,119.937 C167.321001,119.816999 167.530999,119.622001 167.693,119.352 L167.72,119.352 L167.72,120 L168.935,120 Z M169.907,115.347 L169.907,120 L171.185,120 L171.185,117.903 C171.185,117.692999 171.206,117.498001 171.248,117.318 C171.29,117.137999 171.3605,116.980501 171.4595,116.8455 C171.5585,116.710499 171.688999,116.604 171.851,116.526 C172.013001,116.448 172.210999,116.409 172.445,116.409 C172.523,116.409 172.604,116.4135 172.688,116.4225 C172.772,116.4315 172.844,116.442 172.904,116.454 L172.904,115.266 C172.801999,115.236 172.709,115.221 172.625,115.221 C172.462999,115.221 172.307001,115.245 172.157,115.293 C172.006999,115.341 171.866001,115.4085 171.734,115.4955 C171.601999,115.5825 171.485001,115.687499 171.383,115.8105 C171.280999,115.933501 171.2,116.066999 171.14,116.211 L171.122,116.211 L171.122,115.347 L169.907,115.347 Z" id="100Ft" fill="#FFFFFF" sketch:type="MSShapeGroup"></path>
        </g>
    </g>
</svg>