<?xml version="1.0" encoding="UTF-8" standalone="no"?>
<svg width="225px" height="151px" viewBox="0 0 225 151" version="1.1" xmlns="http://www.w3.org/2000/svg" xmlns:xlink="http://www.w3.org/1999/xlink" xmlns:sketch="http://www.bohemiancoding.com/sketch/ns">
    <!-- Generator: Sketch 3.3.2 (12043) - http://www.bohemiancoding.com/sketch -->
    <title>mobilPlus-howDoesGfx-6.2</title>
    <desc>Created with Sketch.</desc>
    <defs></defs>
    <g id="utilities" stroke="none" stroke-width="1" fill="none" fill-rule="evenodd" sketch:type="MSPage">
        <g id="mobilPlus-howDoesGfx-6.2" sketch:type="MSArtboardGroup">
            <rect id="Rectangle-88" stroke="#FFFFFF" stroke-width="2" sketch:type="MSShapeGroup" x="1" y="69" width="223" height="80"></rect>
            <path d="M32.2675927,101.575793 C30.3656392,101.575793 28.8193659,103.389117 28.8193659,105.619236 C28.8193659,107.847865 30.3656392,109.661188 32.2675927,109.661188 C34.1687974,109.661188 35.7158195,107.847865 35.7158195,105.619236 C35.7158195,103.389117 34.1687974,101.575793 32.2675927,101.575793 L32.2675927,101.575793 Z M32.2675927,108.541282 C30.9863949,108.541282 29.9433156,107.2305 29.9433156,105.619236 C29.9433156,104.006482 30.9863949,102.6957 32.2675927,102.6957 C33.5487905,102.6957 34.5918698,104.006482 34.5918698,105.619236 C34.5918698,107.2305 33.5487905,108.541282 32.2675927,108.541282 L32.2675927,108.541282 Z" id="Fill-7" fill="#FFFFFF" sketch:type="MSShapeGroup"></path>
            <path d="M50.9366893,95.9904287 C50.9351917,95.9904287 47.835906,95.6988952 47.835906,95.6988952 C46.9081421,95.6988952 46.1533511,96.5593291 46.1533511,97.6173497 L46.1533511,121.556651 C46.1533511,122.613926 46.9081421,123.475105 47.835906,123.475105 L47.8643604,123.475105 L50.8827757,123.152256 C51.8105396,123.152256 52.5645818,122.291822 52.5645818,121.234547 L52.5645818,97.9066464 C52.5645818,96.850117 51.8120372,95.9904287 50.9366893,95.9904287" id="Fill-8" fill="#FFFFFF" sketch:type="MSShapeGroup"></path>
            <path d="M155,106.873983 L149.221417,106.873983 L149.221417,101.081709 L144.814806,101.081709 L144.814806,106.873983 L139,106.873983 L139,111.289435 L144.814806,111.289435 L144.814806,117.081709 L149.221417,117.081709 L149.221417,111.289435 L155,111.289435 L155,106.873983 Z" id="Fill-1" fill="#FFFFFF" sketch:type="MSShapeGroup"></path>
            <path d="M93.5463259,106.80252 L93.5463259,111.55802 L76.7419486,111.55802 L79.4388318,113.819455 L79.4388318,119.177409 L67.5463259,109.201893 L79.4388318,99.1838764 L79.4388318,104.541084 L76.7657192,106.80252 L93.5463259,106.80252 Z" id="Fill-3" fill="#FFFFFF" sketch:type="MSShapeGroup" transform="translate(80.546326, 109.180643) scale(-1, 1) translate(-80.546326, -109.180643) "></path>
            <path d="M54.1333191,89.5230073 L26.6628202,85.6503089 L26.4928424,85.640616 C24.177551,85.640616 22.2763462,87.6716577 22.0936389,90.2440122 L18.6454121,90.2440122 C16.6408729,90.2440122 15.0159756,91.8627316 15.0159756,93.8587296 L15.0159756,125.282464 C15.0159756,127.277716 16.6408729,128.896436 18.6454121,128.896436 L22.205959,128.896436 C22.6762058,131.087038 24.4171672,132.719924 26.4928424,132.719924 L26.5737129,132.719924 L54.073415,129.809062 C56.4748186,129.772527 58.4291881,127.526005 58.4291881,124.802291 L58.4291881,94.5282874 C58.4291881,91.831416 56.5055194,89.5953315 54.1333191,89.5230073 L54.1333191,89.5230073 Z M56.8971421,124.802291 C56.8971421,126.725965 55.6054611,128.28429 54.0120134,128.28429 L26.4920936,131.194406 C24.898646,131.194406 23.6077137,129.636081 23.6077137,127.712407 L23.6077137,90.6481329 C23.6077137,88.724459 24.898646,87.1661341 26.4920936,87.1661341 L54.0120134,91.045543 C55.6054611,91.045543 56.8971421,92.6053592 56.8971421,94.5275418 L56.8971421,124.802291 L56.8971421,124.802291 Z" id="Fill-9" fill="#FFFFFF" sketch:type="MSShapeGroup"></path>
            <path d="M122.886,87.0817088 L104.607429,87.0817088 C103.173429,87.0817088 102,88.265555 102,89.7133434 L102,128.034305 C102,129.482093 103.173429,130.666805 104.607429,130.666805 L122.886,130.666805 C124.319143,130.666805 125.492571,129.482093 125.492571,128.034305 L125.492571,89.7133434 C125.492571,88.265555 124.319143,87.0817088 122.886,87.0817088 L122.886,87.0817088 Z M109.314857,89.0971896 L118.178571,89.0971896 C118.532571,89.0971896 118.823143,89.3896896 118.823143,89.7479588 C118.823143,90.106228 118.532571,90.398728 118.178571,90.398728 L109.314857,90.398728 C108.96,90.398728 108.670286,90.106228 108.670286,89.7479588 C108.670286,89.3896896 108.96,89.0971896 109.314857,89.0971896 L109.314857,89.0971896 Z M113.746286,129.504593 C112.934571,129.504593 112.270286,128.83392 112.270286,128.014401 C112.270286,127.194017 112.934571,126.523343 113.746286,126.523343 C114.558,126.523343 115.223143,127.194017 115.223143,128.014401 C115.223143,128.83392 114.558,129.504593 113.746286,129.504593 L113.746286,129.504593 Z M104.170286,92.4271896 L123.323143,92.4271896 L123.323143,125.319593 L104.170286,125.319593 L104.170286,92.4271896 Z" id="Imported-Layers-8" fill="#FFFFFF" sketch:type="MSShapeGroup"></path>
            <g id="euro-2" sketch:type="MSLayerGroup" transform="translate(169.000000, 88.081709)" stroke="#FFFFFF" stroke-width="2">
                <path d="M20.5,0 C9.17914003,0 0,9.17821552 0,20.5005956 C0,31.8229757 9.17914003,41 20.5,41 C31.8232423,41 41,31.8229757 41,20.5005956 C41,9.17821552 31.8232423,0 20.5,0 L20.5,0 Z" id="Fill-6" sketch:type="MSShapeGroup"></path>
            </g>
            <path d="M114.3,1.816 C100.028,1.816 98.172,4.312 98.172,25.112 C98.172,46.488 100.028,47.384 114.3,47.384 C126.972,47.384 129.212,45.208 129.212,33.304 C129.212,21.656 126.46,20.76 115.324,20.76 C105.916,20.76 103.548,22.04 101.948,24.6 C101.948,5.976 103.868,4.888 114.428,4.888 C118.972,4.888 123.324,5.208 125.5,5.72 L125.884,5.464 L125.884,4.312 C125.884,2.52 123.452,1.816 114.3,1.816 L114.3,1.816 Z M113.34,23.832 C123.9,23.832 125.436,24.344 125.436,33.624 C125.436,42.968 123.708,44.312 114.364,44.312 C104.316,44.312 102.268,44.12 102.012,30.552 C102.012,26.2 103.996,23.832 113.34,23.832 L113.34,23.832 Z M141.830667,47 L141.830667,42.2 L137.030667,42.2 L137.030667,47 L141.830667,47 Z" id="6." fill="#FFFFFF" sketch:type="MSShapeGroup"></path>
            <path d="M180.0935,108 L180.0935,99.6 L178.7375,99.6 C178.6895,99.9200016 178.589501,100.187999 178.4375,100.404 C178.285499,100.620001 178.099501,100.793999 177.8795,100.926 C177.659499,101.058001 177.411501,101.15 177.1355,101.202 C176.859499,101.254 176.573501,101.276 176.2775,101.268 L176.2775,102.552 L178.3895,102.552 L178.3895,108 L180.0935,108 Z M184.0175,103.764 C184.0175,103.619999 184.0195,103.446001 184.0235,103.242 C184.0275,103.037999 184.0415,102.828001 184.0655,102.612 C184.0895,102.395999 184.1295,102.182001 184.1855,101.97 C184.2415,101.757999 184.3195,101.568001 184.4195,101.4 C184.519501,101.231999 184.647499,101.096001 184.8035,100.992 C184.959501,100.887999 185.153499,100.836 185.3855,100.836 C185.617501,100.836 185.813499,100.887999 185.9735,100.992 C186.133501,101.096001 186.265499,101.231999 186.3695,101.4 C186.473501,101.568001 186.5515,101.757999 186.6035,101.97 C186.6555,102.182001 186.6955,102.395999 186.7235,102.612 C186.7515,102.828001 186.7675,103.037999 186.7715,103.242 C186.7755,103.446001 186.7775,103.619999 186.7775,103.764 C186.7775,104.004001 186.7695,104.293998 186.7535,104.634 C186.7375,104.974002 186.6875,105.301998 186.6035,105.618 C186.5195,105.934002 186.383501,106.203999 186.1955,106.428 C186.007499,106.652001 185.737502,106.764 185.3855,106.764 C185.041498,106.764 184.777501,106.652001 184.5935,106.428 C184.409499,106.203999 184.2755,105.934002 184.1915,105.618 C184.1075,105.301998 184.0575,104.974002 184.0415,104.634 C184.0255,104.293998 184.0175,104.004001 184.0175,103.764 L184.0175,103.764 Z M182.3135,103.764 C182.3135,104.604004 182.395499,105.305997 182.5595,105.87 C182.723501,106.434003 182.945499,106.883998 183.2255,107.22 C183.505501,107.556002 183.831498,107.795999 184.2035,107.94 C184.575502,108.084001 184.969498,108.156 185.3855,108.156 C185.809502,108.156 186.207498,108.084001 186.5795,107.94 C186.951502,107.795999 187.279499,107.556002 187.5635,107.22 C187.847501,106.883998 188.071499,106.434003 188.2355,105.87 C188.399501,105.305997 188.4815,104.604004 188.4815,103.764 C188.4815,102.947996 188.399501,102.262003 188.2355,101.706 C188.071499,101.149997 187.847501,100.704002 187.5635,100.368 C187.279499,100.031998 186.951502,99.7920007 186.5795,99.648 C186.207498,99.5039993 185.809502,99.432 185.3855,99.432 C184.969498,99.432 184.575502,99.5039993 184.2035,99.648 C183.831498,99.7920007 183.505501,100.031998 183.2255,100.368 C182.945499,100.704002 182.723501,101.149997 182.5595,101.706 C182.395499,102.262003 182.3135,102.947996 182.3135,103.764 L182.3135,103.764 Z M190.6895,103.764 C190.6895,103.619999 190.6915,103.446001 190.6955,103.242 C190.6995,103.037999 190.7135,102.828001 190.7375,102.612 C190.7615,102.395999 190.8015,102.182001 190.8575,101.97 C190.9135,101.757999 190.9915,101.568001 191.0915,101.4 C191.191501,101.231999 191.319499,101.096001 191.4755,100.992 C191.631501,100.887999 191.825499,100.836 192.0575,100.836 C192.289501,100.836 192.485499,100.887999 192.6455,100.992 C192.805501,101.096001 192.937499,101.231999 193.0415,101.4 C193.145501,101.568001 193.2235,101.757999 193.2755,101.97 C193.3275,102.182001 193.3675,102.395999 193.3955,102.612 C193.4235,102.828001 193.4395,103.037999 193.4435,103.242 C193.4475,103.446001 193.4495,103.619999 193.4495,103.764 C193.4495,104.004001 193.4415,104.293998 193.4255,104.634 C193.4095,104.974002 193.3595,105.301998 193.2755,105.618 C193.1915,105.934002 193.055501,106.203999 192.8675,106.428 C192.679499,106.652001 192.409502,106.764 192.0575,106.764 C191.713498,106.764 191.449501,106.652001 191.2655,106.428 C191.081499,106.203999 190.9475,105.934002 190.8635,105.618 C190.7795,105.301998 190.7295,104.974002 190.7135,104.634 C190.6975,104.293998 190.6895,104.004001 190.6895,103.764 L190.6895,103.764 Z M188.9855,103.764 C188.9855,104.604004 189.067499,105.305997 189.2315,105.87 C189.395501,106.434003 189.617499,106.883998 189.8975,107.22 C190.177501,107.556002 190.503498,107.795999 190.8755,107.94 C191.247502,108.084001 191.641498,108.156 192.0575,108.156 C192.481502,108.156 192.879498,108.084001 193.2515,107.94 C193.623502,107.795999 193.951499,107.556002 194.2355,107.22 C194.519501,106.883998 194.743499,106.434003 194.9075,105.87 C195.071501,105.305997 195.1535,104.604004 195.1535,103.764 C195.1535,102.947996 195.071501,102.262003 194.9075,101.706 C194.743499,101.149997 194.519501,100.704002 194.2355,100.368 C193.951499,100.031998 193.623502,99.7920007 193.2515,99.648 C192.879498,99.5039993 192.481502,99.432 192.0575,99.432 C191.641498,99.432 191.247502,99.5039993 190.8755,99.648 C190.503498,99.7920007 190.177501,100.031998 189.8975,100.368 C189.617499,100.704002 189.395501,101.149997 189.2315,101.706 C189.067499,102.262003 188.9855,102.947996 188.9855,103.764 L188.9855,103.764 Z M196.7265,101.574 L196.7265,108 L198.1395,108 L198.1395,105.345 L200.8305,105.345 L200.8305,104.247 L198.1395,104.247 L198.1395,102.762 L201.2445,102.762 L201.2445,101.574 L196.7265,101.574 Z M203.5485,103.347 L203.5485,101.952 L202.2705,101.952 L202.2705,103.347 L201.4965,103.347 L201.4965,104.202 L202.2705,104.202 L202.2705,106.947 C202.2705,107.181001 202.3095,107.369999 202.3875,107.514 C202.4655,107.658001 202.571999,107.769 202.707,107.847 C202.842001,107.925 202.997999,107.9775 203.175,108.0045 C203.352001,108.0315 203.539499,108.045 203.7375,108.045 C203.863501,108.045 203.992499,108.042 204.1245,108.036 C204.256501,108.03 204.376499,108.018 204.4845,108 L204.4845,107.01 C204.4245,107.022 204.3615,107.031 204.2955,107.037 C204.2295,107.043 204.1605,107.046 204.0885,107.046 C203.872499,107.046 203.7285,107.01 203.6565,106.938 C203.5845,106.866 203.5485,106.722001 203.5485,106.506 L203.5485,104.202 L204.4845,104.202 L204.4845,103.347 L203.5485,103.347 Z M182.782,119 L182.782,110.6 L181.426,110.6 C181.378,110.920002 181.278001,111.187999 181.126,111.404 C180.973999,111.620001 180.788001,111.793999 180.568,111.926 C180.347999,112.058001 180.100001,112.15 179.824,112.202 C179.547999,112.254 179.262001,112.276 178.966,112.268 L178.966,113.552 L181.078,113.552 L181.078,119 L182.782,119 Z M187.873,112.574 L187.873,119 L192.751,119 L192.751,117.812 L189.286,117.812 L189.286,116.237 L192.4,116.237 L192.4,115.139 L189.286,115.139 L189.286,113.762 L192.679,113.762 L192.679,112.574 L187.873,112.574 Z M197.935,119 L197.935,114.347 L196.657,114.347 L196.657,116.786 C196.657,117.260002 196.579001,117.600499 196.423,117.8075 C196.266999,118.014501 196.015002,118.118 195.667,118.118 C195.360998,118.118 195.148001,118.023501 195.028,117.8345 C194.907999,117.645499 194.848,117.359002 194.848,116.975 L194.848,114.347 L193.57,114.347 L193.57,117.209 C193.57,117.497001 193.5955,117.759499 193.6465,117.9965 C193.6975,118.233501 193.785999,118.434499 193.912,118.5995 C194.038001,118.764501 194.210499,118.892 194.4295,118.982 C194.648501,119.072 194.928998,119.117 195.271,119.117 C195.541001,119.117 195.804999,119.057001 196.063,118.937 C196.321001,118.816999 196.530999,118.622001 196.693,118.352 L196.72,118.352 L196.72,119 L197.935,119 Z M198.907,114.347 L198.907,119 L200.185,119 L200.185,116.903 C200.185,116.692999 200.206,116.498001 200.248,116.318 C200.29,116.137999 200.3605,115.980501 200.4595,115.8455 C200.5585,115.710499 200.688999,115.604 200.851,115.526 C201.013001,115.448 201.210999,115.409 201.445,115.409 C201.523,115.409 201.604,115.4135 201.688,115.4225 C201.772,115.4315 201.844,115.442 201.904,115.454 L201.904,114.266 C201.801999,114.236 201.709,114.221 201.625,114.221 C201.462999,114.221 201.307001,114.245 201.157,114.293 C201.006999,114.341 200.866001,114.4085 200.734,114.4955 C200.601999,114.5825 200.485001,114.687499 200.383,114.8105 C200.280999,114.933501 200.2,115.066999 200.14,115.211 L200.122,115.211 L200.122,114.347 L198.907,114.347 Z" id="100Ft" fill="#FFFFFF" sketch:type="MSShapeGroup"></path>
        </g>
    </g>
</svg>