<?xml version="1.0" encoding="UTF-8" standalone="no"?>
<svg width="100px" height="100px" viewBox="0 0 100 100" version="1.1" xmlns="http://www.w3.org/2000/svg" xmlns:xlink="http://www.w3.org/1999/xlink" xmlns:sketch="http://www.bohemiancoding.com/sketch/ns">
    <!-- Generator: Sketch 3.3.2 (12043) - http://www.bohemiancoding.com/sketch -->
    <title>mobilPlus-clients-advetisers-14</title>
    <desc>Created with Sketch.</desc>
    <defs></defs>
    <g id="utilities" stroke="none" stroke-width="1" fill="none" fill-rule="evenodd" sketch:type="MSPage">
        <g id="mobilPlus-clients-advetisers-14" sketch:type="MSArtboardGroup">
            <rect id="Rectangle-52" fill="#979797" sketch:type="MSShapeGroup" x="0" y="0" width="100" height="100"></rect>
            <g id="Imported-Layers" sketch:type="MSLayerGroup" transform="translate(17.000000, 15.000000)" fill="#FFFFFF">
                <path d="M23.6196632,15.1632332 C21.6153474,15.8875168 19.3951074,14.8726154 18.6591032,12.89625 C17.9246274,10.9185144 18.9536716,8.72963221 20.9578484,8.00438942 L42.3329558,0.276230769 C44.3374105,-0.447915865 46.5577895,0.566985577 47.2936547,2.54335096 C48.0278526,4.51985337 46.9990863,6.71037981 44.9949095,7.43521154 L23.6196632,15.1632332" id="Fill-1" sketch:type="MSShapeGroup"></path>
                <path d="M23.6196632,26.5718654 C21.6153474,27.2965601 19.3951074,26.2813846 18.6591032,24.3037861 C17.9246274,22.3274207 18.9536716,20.1381274 20.9578484,19.4130216 L42.3329558,11.6856851 C44.3374105,10.9608534 46.5577895,11.9757548 47.2936547,13.9519832 C48.0278526,15.9283486 46.9990863,18.118738 44.9949095,18.8439808 L23.6196632,26.5718654" id="Fill-2" sketch:type="MSShapeGroup"></path>
                <path d="M23.6196632,37.9815937 C21.6153474,38.7058774 19.3951074,37.690976 18.6591032,35.7133774 C17.9246274,33.736601 18.9536716,31.5471707 20.9578484,30.8223389 L42.3329558,23.0944543 C44.3374105,22.3701707 46.5577895,23.383976 47.2936547,25.3614375 C48.0278526,27.3380769 46.9990863,29.5279183 44.9949095,30.2534351 L23.6196632,37.9815937" id="Fill-3" sketch:type="MSShapeGroup"></path>
                <path d="M0.0836463158,47.4611322 L7.25458105,47.4611322 L7.25458105,49.3825529 L2.61568421,49.3825529 L2.61568421,51.0533654 L7.06338947,51.0533654 L7.06338947,53.0468582 L2.61568421,53.0468582 L2.61568421,54.7719303 L7.32905684,54.7719303 L7.32905684,56.7074639 L0.0836463158,56.7074639 L0.0836463158,47.4611322" id="Fill-4" sketch:type="MSShapeGroup"></path>
                <path d="M18.3960758,47.4605841 L20.9472884,47.4605841 L20.9472884,56.7136298 L18.3960758,56.7136298 L18.3960758,47.4605841 Z" id="Fill-5" sketch:type="MSShapeGroup"></path>
                <path d="M30.2535663,47.7583269 L30.0816884,49.7378438 C28.0210989,48.5618077 24.8625474,48.9364183 24.8066905,52.0212692 C24.7490274,55.1029688 28.0591705,55.553625 30.1585263,54.5066611 L30.2905263,56.5271466 C26.5838274,57.6664615 22.1573811,56.5079639 22.1761389,52.0212692 C22.1943411,47.6262404 26.6581642,46.4111538 30.2535663,47.7583269" id="Fill-6" sketch:type="MSShapeGroup"></path>
                <path d="M37.7635326,47.6148678 L37.5906821,49.5414952 C36.3061137,48.8432452 33.8650863,48.8250216 33.8650863,49.9210385 C33.8650863,51.5456755 38.21664,50.3723798 38.21664,53.8492428 C38.21664,57.2691058 34.0748968,57.3076082 31.3872379,56.5133077 L31.5784295,54.4736394 C33.2603874,55.247524 35.64528,55.4174279 35.64528,54.0766947 C35.64528,52.6025048 31.2756632,53.4325673 31.2756632,50.1272524 C31.2756632,47.416875 34.6787621,46.690125 37.7635326,47.6148678" id="Fill-7" sketch:type="MSShapeGroup"></path>
                <path d="M45.4598274,47.6148678 L45.2907284,49.5414952 C44.0037979,48.8432452 41.5640211,48.8250216 41.5640211,49.9210385 C41.5640211,51.5456755 45.9154358,50.3723798 45.9154358,53.8492428 C45.9154358,57.2691058 41.7720253,57.3076082 39.0854779,56.5133077 L39.2769474,54.4736394 C40.9580716,55.247524 43.3417137,55.4174279 43.3417137,54.0766947 C43.3417137,52.6025048 38.9740421,53.4325673 38.9740421,50.1272524 C38.9740421,47.416875 42.3776968,46.690125 45.4598274,47.6148678" id="Fill-8" sketch:type="MSShapeGroup"></path>
                <path d="M57.2068547,47.4611322 L60.4394653,47.4611322 L63.5239579,53.4284567 L63.5239579,47.4611322 L65.8685558,47.4611322 L65.8685558,56.7136298 L62.8239411,56.7136298 L59.5716,50.6325793 L59.5716,56.7136298 L57.2068547,56.7136298 L57.2068547,47.4611322" id="Fill-9" sketch:type="MSShapeGroup"></path>
                <path d="M51.3245179,47.2383389 C53.9759116,47.2392981 55.9964842,48.7689808 55.9964842,52.1073173 C55.9964842,55.2976731 53.9639621,56.9377933 51.3245179,56.9377933 C48.6885474,56.9394375 46.6703368,55.3354904 46.6703368,52.1073173 C46.6703368,48.7689808 48.6792379,47.2383389 51.3245179,47.2383389 M49.2817137,52.1073173 C49.2817137,53.5179303 49.8944716,55.1135192 51.3245179,55.1111899 C52.7545642,55.1087236 53.3556505,53.5179303 53.3663495,52.1073173 C53.37816,50.8324904 52.7545642,49.105774 51.3245179,49.1037187 C49.8944716,49.1037187 49.2817137,50.6968413 49.2817137,52.1073173" id="Fill-10" sketch:type="MSShapeGroup"></path>
                <path d="M11.54736,51.3590553 L12.9466989,51.3590553 C13.5766863,51.3701538 14.1444253,50.9966394 14.1378947,50.3137356 C14.13456,49.7103029 13.6318484,49.2795144 12.9837979,49.2893798 L11.54736,49.2893798 L11.54736,51.3590553 L11.54736,51.3590553 Z M9.10619368,47.4611322 L13.70424,47.4611322 C14.9521263,47.4611322 16.6904968,48.001262 16.6904968,49.9236418 C16.6904968,51.1529784 16.1256758,51.8428702 15.0509179,52.162125 C15.1014947,52.1571923 15.6636758,52.4005385 15.8973853,53.095363 C15.9055832,53.1176971 17.2123832,56.7041755 17.2271116,56.7136298 L14.5155537,56.7136298 L13.5515368,53.9335096 C13.4035579,53.5061466 13.0812,53.2232019 12.6246189,53.2232019 C12.2275074,53.2232019 11.6036337,53.1984014 11.6036337,53.2232019 L11.6036337,56.7136298 L9.10619368,56.7136298 L9.10619368,47.4611322 L9.10619368,47.4611322 Z" id="Fill-11" sketch:type="MSShapeGroup"></path>
            </g>
        </g>
    </g>
</svg>