<?xml version="1.0" encoding="UTF-8" standalone="no"?>
<svg width="100px" height="100px" viewBox="0 0 100 100" version="1.1" xmlns="http://www.w3.org/2000/svg" xmlns:xlink="http://www.w3.org/1999/xlink" xmlns:sketch="http://www.bohemiancoding.com/sketch/ns">
    <!-- Generator: Sketch 3.3.2 (12043) - http://www.bohemiancoding.com/sketch -->
    <title>mobilPlus-clients-advetisers-15</title>
    <desc>Created with Sketch.</desc>
    <defs></defs>
    <g id="utilities" stroke="none" stroke-width="1" fill="none" fill-rule="evenodd" sketch:type="MSPage">
        <g id="mobilPlus-clients-advetisers-15" sketch:type="MSArtboardGroup">
            <rect id="Rectangle-52" fill="#979797" sketch:type="MSShapeGroup" x="0" y="0" width="100" height="100"></rect>
            <g id="Imported-Layers" sketch:type="MSLayerGroup" transform="translate(12.000000, 41.000000)" fill="#FFFFFF">
                <path d="M24.8678954,8.14905128 L19.8379869,8.14905128 L19.5016993,11.3790513 C19.4316601,12.0547692 19.4276863,12.4898205 19.4907712,12.6851795 C19.5538562,12.8805385 19.7038693,12.9779744 19.9408105,12.9779744 C20.2358693,12.9779744 20.4464837,12.8483846 20.5726536,12.5896923 C20.6993203,12.3305128 20.8011503,11.8296923 20.8786405,11.0867436 L21.0837908,9.11658974 L24.7670588,9.11658974 L24.6523137,10.2200513 C24.5559477,11.1432564 24.4322614,11.8521026 24.2817516,12.3480513 C24.1307451,12.8430256 23.8431373,13.3716154 23.4189281,13.9347949 C22.9952157,14.4974872 22.4880523,14.9198718 21.8979346,15.2009744 C21.3073203,15.4825641 20.5890458,15.6228718 19.7431111,15.6228718 C18.9220131,15.6228718 18.2116863,15.4845128 17.6126275,15.2068205 C17.0130719,14.9296154 16.5640261,14.5481538 16.2649935,14.0643846 C15.9659608,13.5801282 15.7791895,13.0471538 15.7051765,12.4659487 C15.6311634,11.8842564 15.6520261,11.0375385 15.7677647,9.92725641 L16.221281,5.57138462 C16.3573856,4.26574359 16.6151895,3.23633333 16.9946928,2.48120513 C17.3746928,1.72705128 17.928549,1.14925641 18.6567582,0.747820513 C19.3844706,0.346384615 20.1936471,0.145666667 21.085281,0.145666667 C22.1751111,0.145666667 23.0488627,0.387794872 23.7075294,0.871564103 C24.3652026,1.35582051 24.7953725,1.9974359 24.9975425,2.79641026 C25.1992157,3.59587179 25.2250458,4.71979487 25.0740392,6.16769231 L24.8678954,8.14905128 L24.8678954,8.14905128 Z M21.2263529,5.71753846 L21.3401046,4.62576923 C21.4205752,3.85310256 21.4369673,3.35423077 21.3902745,3.12866667 C21.343085,2.90358974 21.2104575,2.79105128 20.9923922,2.79105128 C20.7231634,2.79105128 20.5463268,2.88702564 20.4623791,3.078 C20.3784314,3.26946154 20.2924967,3.78538462 20.2050719,4.62576923 L20.0913203,5.71753846 L21.2263529,5.71753846 L21.2263529,5.71753846 Z" id="Fill-1" sketch:type="MSShapeGroup"></path>
                <path d="M30.8957386,0.415564103 L30.691085,1.73582051 C31.0929412,1.20235897 31.5156601,0.803846154 31.9597386,0.540282051 C32.403817,0.277205128 32.8732288,0.145666667 33.3669804,0.145666667 C33.9695163,0.145666667 34.470719,0.335179487 34.8700915,0.714205128 C35.2694641,1.09274359 35.4984575,1.53023077 35.5560784,2.02569231 C35.6132026,2.52115385 35.5799216,3.36153846 35.456732,4.54684615 L34.8015425,10.8387692 C34.6599739,12.1970256 34.4905882,13.1635897 34.2928889,13.7374872 C34.0956863,14.3113846 33.7653595,14.7693333 33.3033987,15.1113333 C32.8414379,15.452359 32.3094379,15.6228718 31.706902,15.6228718 C31.2260654,15.6228718 30.7939085,15.4918205 30.4114248,15.2287436 C30.0284444,14.9651795 29.6936471,14.5744615 29.4080261,14.0561026 L28.8864575,18.5542308 L25.0010196,18.5542308 L26.9427451,0.415564103 L30.8957386,0.415564103 L30.8957386,0.415564103 Z M31.5494379,4.76120513 C31.6458039,3.83848718 31.6746144,3.27871795 31.6368627,3.08335897 C31.5996078,2.88897436 31.4500915,2.79105128 31.1868235,2.79105128 C30.9305098,2.79105128 30.7536732,2.90358974 30.6563137,3.12866667 C30.5589542,3.35423077 30.4655686,3.89792308 30.3756601,4.76120513 L29.7313987,10.9517949 C29.6375163,11.8521026 29.6171503,12.4152821 29.6707974,12.640359 C29.7244444,12.8644615 29.8789281,12.9779744 30.1357386,12.9779744 C30.3855948,12.9779744 30.552,12.8746923 30.6339608,12.6686154 C30.716915,12.4615641 30.7993725,11.9612308 30.8823268,11.1656667 L31.5494379,4.76120513 L31.5494379,4.76120513 Z" id="Fill-2" sketch:type="MSShapeGroup"></path>
                <path d="M40.0356078,6.20130769 L36.3905882,6.20130769 L36.494902,5.20015385 C36.6151111,4.0445641 36.8212549,3.15351282 37.1143268,2.52651282 C37.406902,1.9 37.9215163,1.3465641 38.6576732,0.866205128 C39.3938301,0.385846154 40.3098039,0.145666667 41.4060915,0.145666667 C42.7204444,0.145666667 43.6826144,0.418 44.293098,0.962179487 C44.903085,1.50587179 45.2344052,2.17379487 45.2870588,2.96594872 C45.338719,3.75761538 45.2363922,5.38771795 44.9795817,7.85674359 L44.1982222,15.3529744 L40.4185882,15.3529744 L40.5571765,14.022 C40.2646013,14.5559487 39.9168889,14.9559231 39.5140392,15.2228974 C39.1111895,15.4898718 38.6502222,15.6228718 38.1306405,15.6228718 C37.4511111,15.6228718 36.8505621,15.3997436 36.3299869,14.953 C35.808915,14.5067436 35.6276078,13.5289744 35.7845752,12.0211538 L35.9122353,10.7944359 C36.0284706,9.67587179 36.2584575,8.91489744 36.6016993,8.5095641 C36.9454379,8.10374359 37.7412026,7.63117949 38.9904837,7.09089744 C40.3271895,6.50579487 41.0509281,6.11166667 41.1621961,5.90851282 C41.2729673,5.70633333 41.3608889,5.29417949 41.4254641,4.67058974 C41.5069281,3.89012821 41.5099085,3.382 41.4353987,3.14571795 C41.3608889,2.90894872 41.2078954,2.79105128 40.976915,2.79105128 C40.7141438,2.79105128 40.5402876,2.89092308 40.4553464,3.08969231 C40.370902,3.28846154 40.2854641,3.80438462 40.1985359,4.63697436 L40.0356078,6.20130769 L40.0356078,6.20130769 Z M41.0524183,8.25038462 C40.3753725,8.78287179 39.968549,9.22912821 39.831451,9.59012821 C39.6943529,9.95015385 39.5910327,10.4670513 39.5204967,11.1432564 C39.4400261,11.9159231 39.4315817,12.4152821 39.4946667,12.640359 C39.5577516,12.8644615 39.7172026,12.9779744 39.9740131,12.9779744 C40.2174118,12.9779744 40.3853072,12.8897949 40.4772026,12.7134359 C40.5695948,12.5370769 40.6545359,12.0732821 40.7325229,11.3230256 L41.0524183,8.25038462 L41.0524183,8.25038462 Z" id="Fill-3" sketch:type="MSShapeGroup"></path>
                <path d="M50.9284444,0.415564103 L50.7133595,1.83715385 C51.0729935,1.273 51.4763399,0.850615385 51.9224052,0.568538462 C52.3689673,0.286948718 52.8577516,0.145666667 53.3897516,0.145666667 C54.4284183,0.145666667 55.1874248,0.709333333 55.6657778,1.83715385 C56.0517386,1.273 56.4645229,0.850615385 56.9041307,0.568538462 C57.3437386,0.286948718 57.8141438,0.145666667 58.3138562,0.145666667 C58.9745098,0.145666667 59.5015425,0.333230769 59.8949542,0.708846154 C60.2888627,1.08397436 60.5183529,1.54387179 60.5834248,2.0875641 C60.6484967,2.63174359 60.6176993,3.51548718 60.4900392,4.73830769 L59.3848105,15.3529744 L55.6146144,15.3529744 L56.6289412,5.61620513 C56.7610719,4.34028205 56.8067712,3.55105128 56.764549,3.24705128 C56.7223268,2.94305128 56.5668497,2.79105128 56.2976209,2.79105128 C56.0219346,2.79105128 55.8287059,2.94110256 55.7169412,3.24071795 C55.6051765,3.54130769 55.4829804,4.33346154 55.3498562,5.61620513 L54.3355294,15.3529744 L50.5653333,15.3529744 L51.5533333,5.86417949 C51.7058301,4.40069231 51.7669281,3.52230769 51.7366275,3.23 C51.7063268,2.93671795 51.5528366,2.79105128 51.2776471,2.79105128 C51.1042876,2.79105128 50.9483137,2.86851282 50.8112157,3.02148718 C50.6736209,3.17592308 50.5861961,3.36348718 50.5509281,3.58466667 C50.5141699,3.80633333 50.4590327,4.27646154 50.3840261,4.99748718 L49.3056209,15.3529744 L45.5354248,15.3529744 L47.0911895,0.415564103 L50.9284444,0.415564103" id="Fill-4" sketch:type="MSShapeGroup"></path>
                <path d="M15.5695686,1.34120513 L15.5695686,4.88738462 L5.69254902,8.26110256 L14.6878693,11.3751538 L14.6878693,14.7478974 L0.312444444,9.81764103 L0.312444444,6.53112821 L15.5695686,1.34120513" id="Fill-5" sketch:type="MSShapeGroup"></path>
                <path d="M60.5039477,14.9646923 L60.5039477,11.4180256 L70.3814641,8.04479487 L61.3856471,4.93074359 L61.3856471,1.55751282 L75.7610719,6.48776923 L75.7610719,9.77428205 L60.5039477,14.9646923" id="Fill-6" sketch:type="MSShapeGroup"></path>
            </g>
        </g>
    </g>
</svg>