<?xml version="1.0" encoding="UTF-8" standalone="no"?>
<svg width="100px" height="100px" viewBox="0 0 100 100" version="1.1" xmlns="http://www.w3.org/2000/svg" xmlns:xlink="http://www.w3.org/1999/xlink" xmlns:sketch="http://www.bohemiancoding.com/sketch/ns">
    <!-- Generator: Sketch 3.3.2 (12043) - http://www.bohemiancoding.com/sketch -->
    <title>mobilPlus-clients-advetisers-16</title>
    <desc>Created with Sketch.</desc>
    <defs></defs>
    <g id="utilities" stroke="none" stroke-width="1" fill="none" fill-rule="evenodd" sketch:type="MSPage">
        <g id="mobilPlus-clients-advetisers-16" sketch:type="MSArtboardGroup">
            <rect id="Rectangle-52" fill="#979797" sketch:type="MSShapeGroup" x="0" y="0" width="100" height="100"></rect>
            <g id="Imported-Layers" sketch:type="MSLayerGroup" transform="translate(17.000000, 15.000000)">
                <path d="M41.866,7.07571747 C51.9537857,7.16545725 55.0680952,59.9963197 33.7315,59.8065465 C31.2182619,59.7838476 33.4224524,7.00049442 41.866,7.07571747 L41.866,7.07571747 Z" id="Fill-1" fill="#FFFFFF" sketch:type="MSShapeGroup"></path>
                <path d="M41.866,7.07571747 C51.9537857,7.16545725 55.0680952,59.9963197 33.7315,59.8065465 C31.2182619,59.7838476 33.4224524,7.00049442 41.866,7.07571747 L41.866,7.07571747 Z" id="Stroke-2" stroke="#979797" stroke-width="1.3" sketch:type="MSShapeGroup"></path>
                <path d="M23.6798571,7.07571747 C13.5889286,7.16545725 10.474619,59.9963197 31.8133095,59.8065465 C34.3244524,59.7838476 32.1236667,7.00049442 23.6798571,7.07571747 L23.6798571,7.07571747 Z" id="Fill-3" fill="#FFFFFF" sketch:type="MSShapeGroup"></path>
                <path d="M23.6798571,7.07571747 C13.5889286,7.16545725 10.474619,59.9963197 31.8133095,59.8065465 C34.3244524,59.7838476 32.1236667,7.00049442 23.6798571,7.07571747 L23.6798571,7.07571747 Z" id="Stroke-4" stroke="#979797" stroke-width="1.3" sketch:type="MSShapeGroup"></path>
                <path d="M32.7999048,59.8099777 C15.8942143,59.7854312 5.47485714,42.7676022 5.49947619,26.4822082 C5.51492857,14.9981561 11.2152857,4.13779554 13.7633571,4.13937918 C15.1213333,4.14307435 13.9184048,12.0422862 13.9095,18.0540595 C13.8835714,33.5661078 18.4786905,59.790974 32.7999048,59.8099777 L32.7999048,59.8099777 Z" id="Fill-5" fill="#FFFFFF" sketch:type="MSShapeGroup"></path>
                <path d="M32.7999048,59.8099777 C15.8942143,59.7854312 5.47485714,42.7676022 5.49947619,26.4822082 C5.51492857,14.9981561 11.2152857,4.13779554 13.7633571,4.13937918 C15.1213333,4.14307435 13.9184048,12.0422862 13.9095,18.0540595 C13.8835714,33.5661078 18.4786905,59.790974 32.7999048,59.8099777 L32.7999048,59.8099777 Z" id="Stroke-6" stroke="#979797" stroke-width="1.3" sketch:type="MSShapeGroup"></path>
                <path d="M32.7999048,59.8099777 C49.7045476,59.7854312 60.1249524,42.7676022 60.101119,26.4822082 C60.0814762,14.9981561 54.3845238,4.13779554 51.8335714,4.13937918 C50.4769048,4.14307435 51.6816667,12.0422862 51.6903095,18.0540595 C51.7133571,33.5661078 47.1203333,59.790974 32.7999048,59.8099777 L32.7999048,59.8099777 Z" id="Fill-7" fill="#FFFFFF" sketch:type="MSShapeGroup"></path>
                <path d="M32.7999048,59.8099777 C49.7045476,59.7854312 60.1249524,42.7676022 60.101119,26.4822082 C60.0814762,14.9981561 54.3845238,4.13779554 51.8335714,4.13937918 C50.4769048,4.14307435 51.6816667,12.0422862 51.6903095,18.0540595 C51.7133571,33.5661078 47.1203333,59.790974 32.7999048,59.8099777 L32.7999048,59.8099777 Z" id="Stroke-8" stroke="#979797" stroke-width="1.3" sketch:type="MSShapeGroup"></path>
                <path d="M32.782619,0.100825279 C25.1884286,0.100825279 20.253619,21.6146171 20.253619,33.8033903 C20.253619,41.0541004 20.1732143,59.808658 32.7847143,59.808658 L32.815881,59.808658 C45.5054286,59.808658 45.3396429,41.0541004 45.3396429,33.8033903 C45.3396429,21.2944572 40.3752381,0.100825279 32.782619,0.100825279 L32.782619,0.100825279 Z" id="Fill-9" fill="#FFFFFF" sketch:type="MSShapeGroup"></path>
                <path d="M32.782619,0.100825279 C25.1884286,0.100825279 20.253619,21.6146171 20.253619,33.8033903 C20.253619,41.0541004 20.1732143,59.808658 32.7847143,59.808658 L32.815881,59.808658 C45.5054286,59.808658 45.3396429,41.0541004 45.3396429,33.8033903 C45.3396429,21.2944572 40.3752381,0.100825279 32.782619,0.100825279 L32.782619,0.100825279 Z" id="Stroke-10" stroke="#979797" stroke-width="1.3" sketch:type="MSShapeGroup"></path>
                <path d="M52.2557619,49.4189033 C56.7720476,42.0876914 59.1839286,35.6082156 61.8674048,35.6082156 C66.8721429,35.6082156 61.9789762,62.5990372 32.802,62.5990372 C38.3991667,62.5990372 47.7132857,56.7875948 52.2557619,49.4189033 L52.2557619,49.4189033 Z" id="Fill-11" fill="#FFFFFF" sketch:type="MSShapeGroup"></path>
                <path d="M52.2557619,49.4189033 C56.7720476,42.0876914 59.1839286,35.6082156 61.8674048,35.6082156 C66.8721429,35.6082156 61.9789762,62.5990372 32.802,62.5990372 C38.3991667,62.5990372 47.7132857,56.7875948 52.2557619,49.4189033 L52.2557619,49.4189033 Z" id="Stroke-12" stroke="#979797" stroke-width="1.3" sketch:type="MSShapeGroup"></path>
                <path d="M13.3464048,49.4189033 C8.83011905,42.0876914 6.42190476,35.6082156 3.7347619,35.6082156 C-1.26814286,35.6082156 3.6247619,62.5990372 32.802,62.5990372 C27.2027381,62.5990372 17.888881,56.7875948 13.3464048,49.4189033 L13.3464048,49.4189033 Z" id="Fill-13" fill="#FFFFFF" sketch:type="MSShapeGroup"></path>
                <path d="M13.3464048,49.4189033 C8.83011905,42.0876914 6.42190476,35.6082156 3.7347619,35.6082156 C-1.26814286,35.6082156 3.6247619,62.5990372 32.802,62.5990372 C27.2027381,62.5990372 17.888881,56.7875948 13.3464048,49.4189033 L13.3464048,49.4189033 Z" id="Stroke-14" stroke="#979797" stroke-width="1.3" sketch:type="MSShapeGroup"></path>
                <path d="M7.315,42.5216097 C2.95507143,35.8927435 1.99964286,28.9265613 1.38416667,23.4719665 C1.12069048,21.1450669 0.514119048,21.4702416 0.463309524,23.4648401 C0.341261905,28.2466506 1.24614286,34.0229888 2.17904762,37.4164721 C3.17297619,41.0348327 7.57114286,52.8213606 18.7261905,58.5992825 C14.8232857,56.5083457 9.26069048,52.411461 7.315,42.5216097 L7.315,42.5216097 Z" id="Fill-15" fill="#FFFFFF" sketch:type="MSShapeGroup"></path>
                <path d="M7.315,42.5216097 C2.95507143,35.8927435 1.99964286,28.9265613 1.38416667,23.4719665 C1.12069048,21.1450669 0.514119048,21.4702416 0.463309524,23.4648401 C0.341261905,28.2466506 1.24614286,34.0229888 2.17904762,37.4164721 C3.17297619,41.0348327 7.57114286,52.8213606 18.7261905,58.5992825 C14.8232857,56.5083457 9.26069048,52.411461 7.315,42.5216097 L7.315,42.5216097 Z" id="Stroke-16" stroke="#979797" stroke-width="1.3" sketch:type="MSShapeGroup"></path>
                <path d="M58.2819286,42.5216097 C62.6397619,35.8927435 63.5951905,28.9265613 64.2127619,23.4719665 C64.4741429,21.1450669 65.0828095,21.4702416 65.1317857,23.4648401 C65.2572381,28.2466506 64.3502619,34.0229888 63.4194524,37.4164721 C62.4255238,41.0348327 58.0257857,52.8213606 46.8723095,58.5992825 C50.773119,56.5083457 56.3362381,52.411461 58.2819286,42.5216097 L58.2819286,42.5216097 Z" id="Fill-17" fill="#FFFFFF" sketch:type="MSShapeGroup"></path>
                <path d="M58.2819286,42.5216097 C62.6397619,35.8927435 63.5951905,28.9265613 64.2127619,23.4719665 C64.4741429,21.1450669 65.0828095,21.4702416 65.1317857,23.4648401 C65.2572381,28.2466506 64.3502619,34.0229888 63.4194524,37.4164721 C62.4255238,41.0348327 58.0257857,52.8213606 46.8723095,58.5992825 C50.773119,56.5083457 56.3362381,52.411461 58.2819286,42.5216097 L58.2819286,42.5216097 Z" id="Stroke-18" stroke="#979797" stroke-width="1.3" sketch:type="MSShapeGroup"></path>
                <path d="M58.8052143,36.9102342 C58.8052143,25.6246654 55.4572857,17.253 51.0661905,17.253 C45.5858333,17.253 41.2960952,32.1727658 40.2550238,36.0231301 C37.6896667,45.5141673 35.1402857,60.9699963 32.802,61.8592119 C56.1790952,61.21071 58.8052143,44.0009963 58.8052143,36.9102342 L58.8052143,36.9102342 Z" id="Fill-19" fill="#FFFFFF" sketch:type="MSShapeGroup"></path>
                <path d="M58.8052143,36.9102342 C58.8052143,25.6246654 55.4572857,17.253 51.0661905,17.253 C45.5858333,17.253 41.2960952,32.1727658 40.2550238,36.0231301 C37.6896667,45.5141673 35.1402857,60.9699963 32.802,61.8592119 C56.1790952,61.21071 58.8052143,44.0009963 58.8052143,36.9102342 L58.8052143,36.9102342 Z" id="Stroke-20" stroke="#979797" stroke-width="1.3" sketch:type="MSShapeGroup"></path>
                <path d="M6.80035714,36.9102342 C6.80035714,25.6246654 10.1467143,17.253 14.5372857,17.253 C20.0163333,17.253 24.3079048,32.1727658 25.346881,36.0231301 C27.9138095,45.5141673 30.461881,60.9699963 32.802,61.8592119 C9.42280952,61.21071 6.80035714,44.0009963 6.80035714,36.9102342 L6.80035714,36.9102342 Z" id="Fill-21" fill="#FFFFFF" sketch:type="MSShapeGroup"></path>
                <path d="M6.80035714,36.9102342 C6.80035714,25.6246654 10.1467143,17.253 14.5372857,17.253 C20.0163333,17.253 24.3079048,32.1727658 25.346881,36.0231301 C27.9138095,45.5141673 30.461881,60.9699963 32.802,61.8592119 C9.42280952,61.21071 6.80035714,44.0009963 6.80035714,36.9102342 L6.80035714,36.9102342 Z" id="Stroke-22" stroke="#979797" stroke-width="1.3" sketch:type="MSShapeGroup"></path>
                <path d="M0.660261905,42.4880892 C-0.818452381,42.4880892 0.332619048,48.222461 8.84740476,55.7138848 C19.2335,64.8464907 29.6874286,62.8046468 32.802,62.5114089 C8.16566667,62.5114089 4.17057143,42.4880892 0.660261905,42.4880892 L0.660261905,42.4880892 Z" id="Fill-23" fill="#FFFFFF" sketch:type="MSShapeGroup"></path>
                <path d="M0.660261905,42.4880892 C-0.818452381,42.4880892 0.332619048,48.222461 8.84740476,55.7138848 C19.2335,64.8464907 29.6874286,62.8046468 32.802,62.5114089 C8.16566667,62.5114089 4.17057143,42.4880892 0.660261905,42.4880892 L0.660261905,42.4880892 Z" id="Stroke-24" stroke="#979797" stroke-width="1.3" sketch:type="MSShapeGroup"></path>
                <path d="M64.9416429,42.4880892 C66.4203571,42.4880892 65.2695476,48.222461 56.7545,55.7138848 C46.3705,64.8464907 35.9147381,62.8046468 32.802,62.5114089 C57.4365,62.5114089 61.4329048,42.4880892 64.9416429,42.4880892 L64.9416429,42.4880892 Z" id="Fill-25" fill="#FFFFFF" sketch:type="MSShapeGroup"></path>
                <path d="M64.9416429,42.4880892 C66.4203571,42.4880892 65.2695476,48.222461 56.7545,55.7138848 C46.3705,64.8464907 35.9147381,62.8046468 32.802,62.5114089 C57.4365,62.5114089 61.4329048,42.4880892 64.9416429,42.4880892 L64.9416429,42.4880892 Z" id="Stroke-26" stroke="#979797" stroke-width="1.3" sketch:type="MSShapeGroup"></path>
                <path d="M2.33461905,50.1959442 C1.03530952,50.1959442 3.45583333,57.0386022 10.802,60.98029 C14.5791905,63.0052416 21.854119,64.9663197 32.802,62.6077472 C18.7819762,65.1135985 9.82902381,56.342855 8.07138095,54.6414944 C5.95780952,52.5946357 3.86728571,50.1959442 2.33461905,50.1959442 L2.33461905,50.1959442 Z" id="Fill-27" fill="#FFFFFF" sketch:type="MSShapeGroup"></path>
                <path d="M2.33461905,50.1959442 C1.03530952,50.1959442 3.45583333,57.0386022 10.802,60.98029 C14.5791905,63.0052416 21.854119,64.9663197 32.802,62.6077472 C18.7819762,65.1135985 9.82902381,56.342855 8.07138095,54.6414944 C5.95780952,52.5946357 3.86728571,50.1959442 2.33461905,50.1959442 L2.33461905,50.1959442 Z" id="Stroke-28" stroke="#979797" stroke-width="1.3" sketch:type="MSShapeGroup"></path>
                <path d="M63.2672857,50.1959442 C64.5681667,50.1959442 62.1460714,57.0386022 54.7999048,60.98029 C51.0229762,63.0052416 43.7493571,64.9663197 32.802,62.6077472 C46.8201905,65.1135985 55.7765476,56.342855 57.5341905,54.6414944 C59.6456667,52.5946357 61.7382857,50.1959442 63.2672857,50.1959442 L63.2672857,50.1959442 Z" id="Fill-29" fill="#FFFFFF" sketch:type="MSShapeGroup"></path>
                <path d="M63.2672857,50.1959442 C64.5681667,50.1959442 62.1460714,57.0386022 54.7999048,60.98029 C51.0229762,63.0052416 43.7493571,64.9663197 32.802,62.6077472 C46.8201905,65.1135985 55.7765476,56.342855 57.5341905,54.6414944 C59.6456667,52.5946357 61.7382857,50.1959442 63.2672857,50.1959442 L63.2672857,50.1959442 Z" id="Stroke-30" stroke="#979797" stroke-width="1.3" sketch:type="MSShapeGroup"></path>
                <path d="M32.7268333,70.5212119 C32.7268333,70.5214758 27.082,70.5703048 25.619,69.9130929 C26.4544762,70.117119 29.7696667,69.2046766 32.7268333,69.2046766 L32.7339048,69.2046766 C35.6947381,69.2046766 39.0080952,70.117119 39.8433095,69.9130929 C38.3803095,70.5703048 32.7339048,70.5212119 32.7339048,70.5212119 L32.7268333,70.5212119 L32.7268333,70.5212119 Z" id="Fill-31" fill="#FFFFFF" sketch:type="MSShapeGroup"></path>
                <path d="M32.7268333,70.5212119 C32.7268333,70.5214758 27.082,70.5703048 25.619,69.9130929 C26.4544762,70.117119 29.7696667,69.2046766 32.7268333,69.2046766 L32.7339048,69.2046766 C35.6947381,69.2046766 39.0080952,70.117119 39.8433095,69.9130929 C38.3803095,70.5703048 32.7339048,70.5212119 32.7339048,70.5212119 L32.7268333,70.5212119 L32.7268333,70.5212119 Z" id="Stroke-32" stroke="#979797" stroke-width="1.3" sketch:type="MSShapeGroup"></path>
                <path d="M39.8346667,69.9130929 C38.997619,70.117119 35.6845238,69.2046766 32.7231667,69.2046766 L32.7181905,69.2046766 C29.7573571,69.2046766 26.4458333,70.117119 25.6103571,69.9130929 C22.0060238,68.8589145 27.5843333,60.3935502 32.7231667,60.3935502 C37.1925714,60.3935502 43.472,68.6182007 39.8346667,69.9130929 L39.8346667,69.9130929 Z" id="Fill-33" fill="#FFFFFF" sketch:type="MSShapeGroup"></path>
                <path d="M39.8346667,69.9130929 C38.997619,70.117119 35.6845238,69.2046766 32.7231667,69.2046766 L32.7181905,69.2046766 C29.7573571,69.2046766 26.4458333,70.117119 25.6103571,69.9130929 C22.0060238,68.8589145 27.5843333,60.3935502 32.7231667,60.3935502 C37.1925714,60.3935502 43.472,68.6182007 39.8346667,69.9130929 L39.8346667,69.9130929 Z" id="Stroke-34" stroke="#979797" stroke-width="1.3" sketch:type="MSShapeGroup"></path>
                <path d="M57.5289524,61.5601673 C58.638119,61.1333755 59.2446905,61.0961599 58.2523333,62.2176431 C57.2900952,63.3037584 52.074,68.648026 42.6839286,68.648026 C35.0512381,68.648026 29.0386905,60.3935502 32.8051429,60.3935502 C33.7975,60.3935502 40.383881,63.4320335 47.2298095,63.4320335 C51.702619,63.4320335 56.1843333,62.0788104 57.5289524,61.5601673 L57.5289524,61.5601673 Z" id="Fill-35" fill="#FFFFFF" sketch:type="MSShapeGroup"></path>
                <path d="M57.5289524,61.5601673 C58.638119,61.1333755 59.2446905,61.0961599 58.2523333,62.2176431 C57.2900952,63.3037584 52.074,68.648026 42.6839286,68.648026 C35.0512381,68.648026 29.0386905,60.3935502 32.8051429,60.3935502 C33.7975,60.3935502 40.383881,63.4320335 47.2298095,63.4320335 C51.702619,63.4320335 56.1843333,62.0788104 57.5289524,61.5601673 L57.5289524,61.5601673 Z" id="Stroke-36" stroke="#979797" stroke-width="1.3" sketch:type="MSShapeGroup"></path>
                <path d="M7.97578571,61.5601673 C6.8697619,61.1333755 6.26161905,61.0961599 7.25554762,62.2176431 C8.21621429,63.3037584 13.4317857,68.648026 22.8242143,68.648026 C30.4545476,68.648026 36.4655238,60.3935502 32.7022143,60.3935502 C31.710381,60.3935502 25.1224286,63.4320335 18.2744048,63.4320335 C13.8031667,63.4320335 9.32171429,62.0788104 7.97578571,61.5601673 L7.97578571,61.5601673 Z" id="Fill-37" fill="#FFFFFF" sketch:type="MSShapeGroup"></path>
                <path d="M7.97578571,61.5601673 C6.8697619,61.1333755 6.26161905,61.0961599 7.25554762,62.2176431 C8.21621429,63.3037584 13.4317857,68.648026 22.8242143,68.648026 C30.4545476,68.648026 36.4655238,60.3935502 32.7022143,60.3935502 C31.710381,60.3935502 25.1224286,63.4320335 18.2744048,63.4320335 C13.8031667,63.4320335 9.32171429,62.0788104 7.97578571,61.5601673 L7.97578571,61.5601673 Z" id="Stroke-38" stroke="#979797" stroke-width="1.3" sketch:type="MSShapeGroup"></path>
                <path d="M32.7983333,63.0754498 C34.3273333,64.8588959 40.0908095,64.5548364 41.5349524,63.9187398 C38.2896905,65.9452751 35.0968095,67.9361784 32.8297619,67.9361784 C30.6412857,67.9361784 30.4443333,64.8588959 32.7983333,63.0754498 L32.7983333,63.0754498 Z" id="Fill-39" fill="#FFFFFF" sketch:type="MSShapeGroup"></path>
                <path d="M32.7983333,63.0754498 C34.3273333,64.8588959 40.0908095,64.5548364 41.5349524,63.9187398 C38.2896905,65.9452751 35.0968095,67.9361784 32.8297619,67.9361784 C30.6412857,67.9361784 30.4443333,64.8588959 32.7983333,63.0754498 L32.7983333,63.0754498 Z" id="Stroke-40" stroke="#979797" stroke-width="1.3" sketch:type="MSShapeGroup"></path>
                <path d="M32.8051429,63.0754498 C31.2724762,64.8588959 25.509,64.5548364 24.0656429,63.9187398 C27.3143095,65.9452751 30.5037857,67.9361784 32.7724048,67.9361784 C34.9590476,67.9361784 35.156,64.8588959 32.8051429,63.0754498 L32.8051429,63.0754498 Z" id="Fill-41" fill="#FFFFFF" sketch:type="MSShapeGroup"></path>
                <path d="M32.8051429,63.0754498 C31.2724762,64.8588959 25.509,64.5548364 24.0656429,63.9187398 C27.3143095,65.9452751 30.5037857,67.9361784 32.7724048,67.9361784 C34.9590476,67.9361784 35.156,64.8588959 32.8051429,63.0754498 L32.8051429,63.0754498 Z" id="Stroke-42" stroke="#979797" stroke-width="1.3" sketch:type="MSShapeGroup"></path>
                <path d="M22.6005476,62.3092305 C23.0455238,63.8274164 23.8789048,64.1702751 25.8426667,64.4233941 C27.4381905,64.6007621 30.5210714,64.827487 32.7949286,64.827487 L32.8072381,64.827487 C35.0808333,64.827487 38.167381,64.6007621 39.7613333,64.4233941 C41.7266667,64.1702751 42.5600476,63.8274164 43.0029286,62.3092305 C44.2344048,56.9367212 40.3595238,42.5194981 32.8072381,42.5194981 C25.2512857,42.5194981 21.4149048,56.9612677 22.6005476,62.3092305 L22.6005476,62.3092305 Z" id="Fill-43" fill="#FFFFFF" sketch:type="MSShapeGroup"></path>
                <path d="M22.6005476,62.3092305 C23.0455238,63.8274164 23.8789048,64.1702751 25.8426667,64.4233941 C27.4381905,64.6007621 30.5210714,64.827487 32.7949286,64.827487 L32.8072381,64.827487 C35.0808333,64.827487 38.167381,64.6007621 39.7613333,64.4233941 C41.7266667,64.1702751 42.5600476,63.8274164 43.0029286,62.3092305 C44.2344048,56.9367212 40.3595238,42.5194981 32.8072381,42.5194981 C25.2512857,42.5194981 21.4149048,56.9612677 22.6005476,62.3092305 L22.6005476,62.3092305 Z" id="Stroke-44" stroke="#979797" stroke-width="1.3" sketch:type="MSShapeGroup"></path>
                <path d="M51.807381,63.6830409 C48.105619,65.7657955 39.4769048,67.9361784 32.8297619,67.9361784 C37.4581429,67.9361784 43.8297619,59.6555725 50.8674048,59.6555725 C52.8259286,59.6555725 53.3769762,61.1684796 53.3769762,61.783461 C53.3769762,62.4108476 53.0417381,62.9891413 51.807381,63.6830409 L51.807381,63.6830409 Z" id="Fill-45" fill="#FFFFFF" sketch:type="MSShapeGroup"></path>
                <path d="M51.807381,63.6830409 C48.105619,65.7657955 39.4769048,67.9361784 32.8297619,67.9361784 C37.4581429,67.9361784 43.8297619,59.6555725 50.8674048,59.6555725 C52.8259286,59.6555725 53.3769762,61.1684796 53.3769762,61.783461 C53.3769762,62.4108476 53.0417381,62.9891413 51.807381,63.6830409 L51.807381,63.6830409 Z" id="Stroke-46" stroke="#979797" stroke-width="1.3" sketch:type="MSShapeGroup"></path>
                <path d="M13.8503095,63.6830409 C17.5523333,65.7657955 26.1807857,67.9361784 32.8297619,67.9361784 C28.1982381,67.9361784 21.8281905,59.6555725 14.7905476,59.6555725 C12.8301905,59.6555725 12.2828095,61.1684796 12.2828095,61.783461 C12.2828095,62.4108476 12.6159524,62.9891413 13.8503095,63.6830409 L13.8503095,63.6830409 Z" id="Fill-47" fill="#FFFFFF" sketch:type="MSShapeGroup"></path>
                <path d="M13.8503095,63.6830409 C17.5523333,65.7657955 26.1807857,67.9361784 32.8297619,67.9361784 C28.1982381,67.9361784 21.8281905,59.6555725 14.7905476,59.6555725 C12.8301905,59.6555725 12.2828095,61.1684796 12.2828095,61.783461 C12.2828095,62.4108476 12.6159524,62.9891413 13.8503095,63.6830409 L13.8503095,63.6830409 Z" id="Stroke-48" stroke="#979797" stroke-width="1.3" sketch:type="MSShapeGroup"></path>
            </g>
        </g>
    </g>
</svg>