<?xml version="1.0" encoding="UTF-8" standalone="no"?>
<svg width="100px" height="100px" viewBox="0 0 100 100" version="1.1" xmlns="http://www.w3.org/2000/svg" xmlns:xlink="http://www.w3.org/1999/xlink" xmlns:sketch="http://www.bohemiancoding.com/sketch/ns">
    <!-- Generator: Sketch 3.3.2 (12043) - http://www.bohemiancoding.com/sketch -->
    <title>mobilPlus-clients-advetisers-12</title>
    <desc>Created with Sketch.</desc>
    <defs></defs>
    <g id="utilities" stroke="none" stroke-width="1" fill="none" fill-rule="evenodd" sketch:type="MSPage">
        <g id="mobilPlus-clients-advetisers-12" sketch:type="MSArtboardGroup">
            <rect id="Rectangle-52" fill="#979797" sketch:type="MSShapeGroup" x="0" y="0" width="100" height="100"></rect>
            <g id="Group" sketch:type="MSLayerGroup" transform="translate(17.000000, 19.000000)" fill="#FFFFFF">
                <path d="M1.32861702,13.7574419 C1.48717021,13.569907 1.51212766,11.9157907 4.34993617,11.5612326 C5.90170213,11.3663721 5.88114894,12.6087907 6.61665957,14.5075814 C9.5513617,22.088093 15.9522128,28.1522093 25.2246383,28.1404884 C31.0397234,28.1316977 35.621617,25.9472093 39.434234,22.1437674 C44.8588085,16.7301628 46.1419149,9.12181395 46.3034043,8.84344186 C46.5794043,9.19506977 47.2576596,10.6279535 48.2530213,11.9289767 C49.1397447,13.0878837 49.7915745,13.8072558 50.6342553,14.5940233 C51.8322128,15.7133721 55.0032766,18.2773256 56.8192979,18.5293256 L54.1400426,15.8452326 C51.6487021,13.2578372 48.6567447,9.77232558 47.5806383,6.39376744 C47.1108511,4.914 46.8612766,2.98590698 48.7301489,2.81155814 C51.7397234,2.53025581 56.891234,7.16588372 58.685234,8.98116279 C60.9064468,11.2301163 64.3608511,15.2943488 65.2828085,18.4018605 C65.8964681,20.4735349 65.2196809,21.2295349 63.324383,21.5547907 C59.4339574,22.2214186 54.9151915,23.8726047 51.507766,25.753814 C51.1363404,25.9589302 48.6068298,27.3346744 48.3088085,27.6115814 C48.0797872,27.8240233 48.2368723,27.6526047 48.1091489,27.8621163 C49.161766,27.6599302 52.923,25.6292791 58.8452553,24.6168837 C64.0114468,23.7334186 68.9031064,25.1604419 68.9104468,20.8544651 C68.9148511,17.3821395 65.1433404,12.4256512 63.2509787,10.3407907 C60.2208511,7.00472093 53.5542766,0.709116279 48.144383,1.00653488 C46.9155957,1.07393023 46.0435532,1.63506977 45.5620213,2.4657907 C44.988,3.45327907 45.1509574,4.86125581 45.1054468,6.12418605 C44.9571702,10.3437209 42.3204894,15.1112093 40.1858936,17.4627209 C37.6108723,20.3035814 34.5895532,22.5583953 30.1251064,23.6894651 C21.3151277,25.9237674 11.765234,22.0280233 8.39597872,13.9039535 C7.15691489,10.9165814 7.57678723,8.75846512 4.83587234,9.71811628 C2.62787234,10.4902326 0.0895531915,13.0878837 1.32861702,13.7574419" id="Fill-1" sketch:type="MSShapeGroup"></path>
                <path d="M14.9524468,40.8913953 C14.7601277,39.2270233 14.9230851,36.4960465 14.9230851,34.7173953 C14.9230851,33.9657907 14.7043404,32.3307209 15.2871702,31.9673721 C16.0579149,31.4853488 17.0855745,32.0523488 17.4291064,32.5138605 C18.3114255,33.6962093 18.3305106,36.2440465 18.0926809,37.9655581 C17.8108085,40.0152558 17.1002553,40.873814 14.9524468,40.8913953 L14.9524468,40.8913953 Z M10.7331702,31.7446744 C11.694766,31.9380698 11.885617,31.9922791 11.8797447,33.0647442 L11.8797447,48.1964651 C11.8812128,48.6257442 11.9105745,48.9202326 11.6771489,49.2117907 C11.4099574,49.5458372 11.1750638,49.4608605 10.7669362,49.6454651 L10.728766,50.3472558 L16.2751915,50.3692326 L16.2517021,49.6044419 C14.5780851,49.3949302 14.9260213,48.9671163 14.9245532,46.4456512 C14.9230851,44.9277907 14.8995957,43.3879535 14.9304255,41.8730233 C17.3659787,41.958 19.146766,41.4261628 20.199383,40.0738605 C21.2813617,38.6849302 21.9449362,36.7011628 21.3488936,34.5137442 C20.8512128,32.6911395 19.6517872,31.5058605 17.6918936,31.0868372 C16.2649149,30.7806279 12.4067872,30.9286047 10.7566596,30.9593721 L10.7331702,31.7446744 L10.7331702,31.7446744 Z" id="Fill-3" sketch:type="MSShapeGroup"></path>
                <path d="M15.3165319,15.9170233 C15.7114468,15.3778605 15.6894255,12.0652326 18.8971915,9.21118605 C24.3305745,4.37776744 31.7943191,8.20172093 32.4255957,14.6570233 C32.5562553,15.9785581 31.0896383,16.9279535 30.0884043,17.5682093 C29.5554894,17.9081163 28.7891489,18.1864884 28.4265319,18.5293256 C30.1720851,18.5586279 32.3712766,17.7205814 33.6455745,17.0466279 C34.3825532,16.656907 35.1621064,16.2935581 35.2311064,15.2357442 C35.3030426,14.1413023 35.0798936,13.2021628 34.7730638,12.2879302 C32.4050426,5.22313953 24.0663191,2.18155814 17.9282553,7.36953488 C16.0270851,8.97676744 14.7454468,11.3194884 14.2521702,13.7735581 C14.178766,14.1383721 14.0437021,14.8885116 14.2389574,15.2401395 C14.4077872,15.5434186 14.9274894,15.9023721 15.3165319,15.9170233" id="Fill-5" sketch:type="MSShapeGroup"></path>
                <path d="M50.8750213,43.3088372 C50.8368511,45.0523256 51.2038723,47.9283488 50.3259574,48.8132791 C49.1999362,49.9472791 47.921234,47.9063721 48.8402553,45.2926047 C49.1441489,44.4267209 49.9633404,43.582814 50.8750213,43.3088372 L50.8750213,43.3088372 Z M47.9359149,38.8885814 C48.4365319,38.2468605 49.7945106,37.9919302 50.4199149,38.6526977 C51.0100851,39.2783023 50.9087872,40.6818837 50.870617,41.604907 C50.8074894,43.1125116 48.7727234,42.6363488 47.0947021,44.7153488 C44.9439574,47.3789302 46.0552979,51.1574651 49.1691064,50.5435814 C50.2877872,50.323814 50.5549787,49.7392326 51.1598298,49.1063023 C51.4828085,49.6513256 51.4607872,49.9106512 52.0215957,50.3340698 C53.2973617,51.2966512 55.4392979,50.211 55.1853191,47.4683023 L54.4909149,47.4375349 C54.4292553,47.8990465 54.4777021,48.8088837 54.0358085,48.9597907 C53.3414043,49.1956744 53.4338936,48.1481163 53.4368298,47.6104186 C53.4441702,46.2537209 53.4382979,44.8955581 53.4382979,43.5388605 C53.4353617,40.8166744 54.0152553,38.1618837 51.3301277,37.4747442 C49.1705745,36.9209302 45.9437234,37.9846047 46.4384681,40.3932558 C46.8627447,42.4634651 49.9369149,41.6312791 49.2792128,39.6064884 C49.0883617,39.0160465 48.6699574,38.8475581 47.9359149,38.8885814 L47.9359149,38.8885814 Z" id="Fill-7" sketch:type="MSShapeGroup"></path>
                <path d="M24.7445745,38.0856977 C26.4240638,37.6183256 26.3374468,42.3257442 26.3374468,43.7322558 C26.3389149,45.2296047 26.4725106,49.5956512 25.1115957,49.846186 C23.3528298,50.1685116 23.4922979,45.5343488 23.4922979,44.1205116 C23.4922979,42.6026512 23.3601702,38.4695581 24.7445745,38.0856977 L24.7445745,38.0856977 Z M24.1690851,37.4102791 C18.3833617,39.1581628 20.0584468,51.8856279 25.6547872,50.6358837 C29.3719787,49.8066279 30.3526596,42.4180465 27.9244468,38.9999302 C27.2535319,38.0563953 25.7957234,36.9194651 24.1690851,37.4102791 L24.1690851,37.4102791 Z" id="Fill-9" sketch:type="MSShapeGroup"></path>
                <path d="M17.5627021,62.8153953 C17.9106383,62.6703488 18.5375106,62.1839302 18.9603191,61.9114186 C20.5047447,60.921 21.614617,60.3627907 23.391,59.6419535 C25.6459787,58.7277209 27.8848085,58.1314186 30.4392766,57.6567209 C38.7824043,56.108093 41.6158085,57.7519535 47.3530851,57.354907 C45.4401702,56.7996279 46.0464894,57.2552791 43.3275957,56.2033256 C42.123766,55.7374186 40.7422979,55.2671163 39.450383,54.949186 C33.7145745,53.5397442 27.6616596,54.7015814 22.839,57.8266744 C21.2299787,58.8683721 18.2482979,61.299 17.5627021,62.8153953" id="Fill-10" sketch:type="MSShapeGroup"></path>
                <path d="M38.1848936,38.6146047 L39.7821702,38.6131395 C39.6823404,40.0079302 39.6382979,48.3620233 39.9363191,49.2059302 C40.8729574,51.8592558 45.9305106,50.9626047 45.2067447,46.4749535 L44.4110426,46.4910698 C44.3038723,47.4595116 44.3405745,49.1429302 43.3775106,49.2703953 C42.0635745,49.4447442 42.3850851,47.3730698 42.3850851,46.3489535 C42.3850851,43.9285814 42.2294681,40.9661163 42.401234,38.6131395 L44.8441277,38.6131395 L44.85,37.5641163 L42.4159149,37.5641163 L42.3777447,32.3087442 L41.4044043,32.2530698 C41.295766,34.1386744 40.5954894,36.0916744 39.2389787,37.1685349 C38.933617,37.4117442 38.8102979,37.485 38.5460426,37.6344419 C38.0454255,37.9201395 38.1716809,37.9333256 38.1848936,38.6146047" id="Fill-12" sketch:type="MSShapeGroup"></path>
                <path d="M31.4669362,45.3702558 L30.6653617,45.3805116 L30.6550851,50.526 C31.9337872,50.6856977 31.3935319,50.1172326 32.0864681,49.9018605 C32.5709362,49.7509535 33.0877021,50.2754651 33.5618936,50.4366279 C36.9781277,51.5984651 39.5502128,46.4383256 36.2543617,43.4846512 C35.8594468,43.130093 35.3984681,42.8824884 35.000617,42.6041163 C33.7571489,41.7338372 31.6827447,40.7771163 32.309617,39.0702558 C32.775,37.7985349 34.2166596,38.0959535 34.9404255,38.9808837 C35.4821489,39.6431163 36.0018511,40.9294884 36.2499574,41.9433488 L37.1014468,41.944814 L37.1029149,37.3912326 L36.3380426,37.3912326 C35.5614255,38.9486512 35.1694468,37.4073488 33.5824468,37.3809767 C30.8958511,37.3355581 30.1060213,40.5148605 30.9531064,42.5689535 C31.8104681,44.6508837 34.1608723,45.1226512 35.4469149,46.5174419 C36.2572979,47.3965116 36.3365745,48.8191395 35.414617,49.4432791 C34.1961064,50.2666744 33.0730213,49.101907 32.6487447,48.4411395 C31.9954468,47.4243488 31.8868085,46.4603023 31.4669362,45.3702558" id="Fill-13" sketch:type="MSShapeGroup"></path>
                <path d="M22.8287234,8.6397907 C22.7200851,9.19213953 23.2295106,10.4155116 23.3675106,11.0660233 C23.5495532,11.9187209 23.6919574,12.8490698 23.7756383,13.7618372 C23.8637234,14.7200233 23.7638936,15.7353488 23.8167447,16.695 C23.8828085,17.867093 25.7135106,17.4744419 25.8911489,17.1667674 C26.2772553,16.4942791 25.685617,12.4857209 25.5035745,11.6637907 C25.3641064,11.0411163 24.8003617,8.65737209 24.1265106,8.47569767 C23.7521489,8.37460465 23.1120638,8.46690698 22.8287234,8.6397907" id="Fill-15" sketch:type="MSShapeGroup"></path>
                <path d="M17.9649574,1.27318605 C18.0574468,1.60576744 18.2438936,1.66144186 18.4391489,1.95153488 L17.9003617,2.20939535 C17.6067447,2.30169767 17.6155532,2.268 17.3968085,2.43648837 C17.3924043,2.96539535 17.7814468,3.27306977 18.078,3.63055814 C18.7944255,3.61590698 18.9691277,3.35365116 19.7501489,3.35072093 C19.8778723,3.55290698 20.3168298,4.095 20.562,4.2927907 C21.0582128,4.37337209 21.6410426,4.18876744 22.0183404,3.9865814 C22.0212766,3.49283721 21.6469149,3.32288372 21.423766,2.92144186 C21.7071064,2.64013953 22.0021915,2.69581395 22.3501277,2.59032558 C21.9831064,1.26 20.6588936,1.9442093 20.0687234,1.66437209 C19.6708723,1.47683721 19.5974681,1.10762791 19.1717234,1.0255814 C18.7459787,0.942069767 18.1851702,1.02851163 17.9649574,1.27318605" id="Fill-16" sketch:type="MSShapeGroup"></path>
            </g>
        </g>
    </g>
</svg>