<?xml version="1.0" encoding="UTF-8" standalone="no"?>
<svg width="100px" height="100px" viewBox="0 0 100 100" version="1.1" xmlns="http://www.w3.org/2000/svg" xmlns:xlink="http://www.w3.org/1999/xlink" xmlns:sketch="http://www.bohemiancoding.com/sketch/ns">
    <!-- Generator: Sketch 3.3.2 (12043) - http://www.bohemiancoding.com/sketch -->
    <title>mobilPlus-clients-advetisers-17</title>
    <desc>Created with Sketch.</desc>
    <defs></defs>
    <g id="utilities" stroke="none" stroke-width="1" fill="none" fill-rule="evenodd" sketch:type="MSPage">
        <g id="mobilPlus-clients-advetisers-17" sketch:type="MSArtboardGroup">
            <rect id="Rectangle-52" fill="#979797" sketch:type="MSShapeGroup" x="0" y="0" width="100" height="100"></rect>
            <g id="Imported-Layers" sketch:type="MSLayerGroup" transform="translate(11.000000, 27.000000)">
                <path d="M76.5091061,0.756724138 L76.5091061,1.91494253 C76.6108485,1.97247126 77.4259848,2.43994253 77.5229394,2.49586207 C77.6198939,2.43994253 78.4350303,1.97247126 78.5355758,1.91494253 L78.5355758,0.756724138 C78.4350303,0.698390805 77.6198939,0.230114943 77.5229394,0.174195402 C77.4259848,0.230114943 76.6108485,0.698390805 76.5091061,0.756724138 L76.5091061,0.756724138 Z" id="Stroke-1" stroke="#FFFFFF" stroke-width="0.528" sketch:type="MSShapeGroup"></path>
                <path d="M75.5287879,4.34603448 L75.5287879,5.97373563 C75.6700303,6.0545977 76.8139343,6.71155172 76.947197,6.7895977 C77.0852475,6.71155172 78.2291515,6.0545977 78.3711919,5.97373563 L78.3711919,4.34603448 C78.2291515,4.26718391 77.0852475,3.60862069 76.947197,3.53137931 C76.8139343,3.60862069 75.6700303,4.26718391 75.5287879,4.34603448 L75.5287879,4.34603448 Z" id="Stroke-2" stroke="#FFFFFF" stroke-width="0.741" sketch:type="MSShapeGroup"></path>
                <path d="M68.926702,26.4628161 L68.926702,31.5426437 C69.3703788,31.7936782 72.9425354,33.8466092 73.3658636,34.0871839 C73.7923838,33.8466092 77.3649394,31.7936782 77.8078182,31.5426437 L77.8078182,26.4628161 C77.3649394,26.2117816 73.7923838,24.1588506 73.3658636,23.9178736 C72.9425354,24.1588506 69.3703788,26.2117816 68.926702,26.4628161 L68.926702,26.4628161 Z" id="Stroke-3" stroke="#FFFFFF" stroke-width="2.313" sketch:type="MSShapeGroup"></path>
                <path d="M71.9263081,16.262931 L71.9263081,19.7556897 C72.2287424,19.9286782 74.6877172,21.3411494 74.9777828,21.5064943 C75.2722374,21.3411494 77.7268232,19.9286782 78.0324495,19.7556897 L78.0324495,16.262931 C77.7268232,16.0891379 75.2722374,14.6786782 74.9777828,14.512931 C74.6877172,14.6786782 72.2287424,16.0891379 71.9263081,16.262931 L71.9263081,16.262931 Z" id="Stroke-4" stroke="#FFFFFF" stroke-width="1.591" sketch:type="MSShapeGroup"></path>
                <path d="M74.1039949,9.19614943 L74.1039949,11.5544253 C74.3090758,11.671092 75.9652828,12.6237356 76.1639798,12.7367816 C76.3606818,12.6237356 78.0200808,11.671092 78.2255606,11.5544253 L78.2255606,9.19614943 C78.0200808,9.07988506 76.3606818,8.12804598 76.1639798,8.0162069 C75.9652828,8.12804598 74.3090758,9.07988506 74.1039949,9.19614943 L74.1039949,9.19614943 Z" id="Stroke-5" stroke="#FFFFFF" stroke-width="1.074" sketch:type="MSShapeGroup"></path>
                <path d="M3.96516162,19.3883908 L0.385424242,19.3883908 L0.385424242,18.7748851 L3.48836869,18.7748851 C3.48836869,18.7748851 3.77643939,18.7748851 3.79519192,18.4892529 L3.79519192,17.7357471 C3.79519192,17.7357471 3.79519192,17.5092529 3.44088889,17.5092529 L0.409762626,17.5092529 L0.409762626,16.8852874 L3.45325758,16.8852874 C3.45325758,16.8852874 3.79519192,16.8852874 3.79519192,16.6105172 L3.79519192,16.083908 C3.79519192,16.083908 3.79519192,15.8220115 3.48836869,15.8220115 L0.878176768,15.8220115 C0.878176768,15.8220115 0.649555556,15.8405172 0.649555556,16.1265517 L0.649555556,19.3883908 L0.047479798,19.3883908 L0.047479798,15.6594828 C0.047479798,15.6594828 0.0598484848,15.216954 0.477590909,15.216954 L3.96516162,15.216954 C3.96516162,15.216954 4.39527273,15.2334483 4.39527273,15.6594828 L4.39527273,16.8852874 C4.39527273,16.8852874 4.35896465,17.1576437 3.96516162,17.1576437 C3.96516162,17.1576437 4.39527273,17.1765517 4.39527273,17.516092 L4.39527273,18.951092 C4.39527273,18.951092 4.39527273,19.3883908 3.96516162,19.3883908" id="Fill-6" fill="#FFFFFF" sketch:type="MSShapeGroup"></path>
                <path d="M9.49117172,19.3883908 L6.00240404,19.3883908 C5.57229293,19.3883908 5.57229293,18.951092 5.57229293,18.951092 L5.57229293,15.216954 L6.17436869,15.216954 L6.17436869,18.6059195 C6.17436869,18.7805172 6.35710606,18.7748851 6.35710606,18.7748851 L9.15402525,18.7748851 C9.33197475,18.7748851 9.32120202,18.5532184 9.32120202,18.5532184 L9.32120202,15.216954 L9.92008586,15.216954 L9.92008586,18.951092 C9.92008586,19.3883908 9.49117172,19.3883908 9.49117172,19.3883908" id="Fill-7" fill="#FFFFFF" sketch:type="MSShapeGroup"></path>
                <path d="M14.9393788,19.3763218 L11.5156465,19.3763218 L11.5156465,18.7632184 L14.5212374,18.7632184 C14.5212374,18.7632184 14.7682121,18.7575862 14.7682121,18.5298851 L14.7682121,16.0199425 C14.7682121,16.0199425 14.7682121,15.8171839 14.5212374,15.8171839 L11.6225758,15.8171839 L11.6225758,19.3763218 L11.0280808,19.3763218 L11.0280808,15.2097126 L14.9393788,15.2097126 C14.9393788,15.2097126 15.3694899,15.2274138 15.3694899,15.6522414 L15.3694899,18.9382184 C15.3694899,18.9382184 15.3870455,19.3763218 14.9393788,19.3763218" id="Fill-8" fill="#FFFFFF" sketch:type="MSShapeGroup"></path>
                <path d="M20.1813081,19.3883908 L20.1813081,16.1490805 C20.1813081,16.1490805 20.2407576,15.8220115 19.827404,15.8220115 L17.3772071,15.8220115 C17.3772071,15.8220115 17.024899,15.8586207 17.024899,16.1728161 L17.024899,17.0063793 L20.4095303,17.0063793 L20.4095303,17.6251149 L17.024899,17.6251149 L17.024899,19.3883908 L16.4292071,19.3883908 L16.4292071,15.6594828 C16.4292071,15.6594828 16.4411768,15.216954 16.8529343,15.216954 L20.3405051,15.216954 C20.3405051,15.216954 20.7706162,15.216954 20.7706162,15.6594828 L20.7706162,19.3883908 L20.1813081,19.3883908" id="Fill-9" fill="#FFFFFF" sketch:type="MSShapeGroup"></path>
                <path d="M25.8601313,17.6259195 L22.3753535,17.6259195 L22.3753535,17.0011494 L25.4647323,17.0011494 C25.4647323,17.0011494 25.6889646,17.0124138 25.6889646,16.8498851 L25.6889646,15.955977 C25.6889646,15.955977 25.7009343,15.8171839 25.4838838,15.8171839 L22.5437273,15.8171839 L22.5437273,19.3763218 L21.9428485,19.3763218 L21.9428485,15.6522414 C21.9428485,15.6522414 21.9540202,15.2097126 22.3729596,15.2097126 L25.8601313,15.2097126 C25.8601313,15.2097126 26.2906414,15.2274138 26.2906414,15.6522414 L26.2906414,17.1882184 C26.2906414,17.1882184 26.3018131,17.6259195 25.8601313,17.6259195" id="Fill-10" fill="#FFFFFF" sketch:type="MSShapeGroup"></path>
                <path d="M27.7864545,19.3763218 C27.3619293,19.3763218 27.3619293,18.9382184 27.3619293,18.9382184 L27.3619293,15.6522414 C27.3619293,15.6522414 27.373101,15.2097126 27.7864545,15.2097126 L31.7037374,15.2097126 L31.7037374,15.8171839 L28.1754697,15.8171839 C28.1754697,15.8171839 27.9624091,15.8047126 27.9624091,16.0613793 L27.9624091,16.8382184 L31.7037374,16.8382184 L31.7037374,17.4674138 L27.9624091,17.4674138 L27.9624091,18.5411494 C27.9624091,18.5411494 27.9624091,18.7632184 28.1922273,18.7632184 L31.7037374,18.7632184 L31.7037374,19.3763218 L27.7864545,19.3763218" id="Fill-11" fill="#FFFFFF" sketch:type="MSShapeGroup"></path>
                <path d="M36.7521566,19.3883908 L32.8408586,19.3883908 L32.8408586,18.7748851 L36.5809899,18.7748851 L36.5809899,17.7124138 C36.5809899,17.7124138 36.6037323,17.4923563 36.379899,17.4923563 L33.2645859,17.4923563 C33.2645859,17.4923563 32.8408586,17.4738506 32.8408586,16.865977 L32.8408586,15.6590805 C32.8408586,15.6590805 32.8408586,15.216954 33.2645859,15.216954 L37.1806717,15.216954 L37.1806717,15.8220115 L33.4365505,15.8220115 L33.4365505,16.6040805 C33.4365505,16.6040805 33.4225859,16.865977 33.6344495,16.865977 L36.7521566,16.865977 C36.7521566,16.865977 37.1806717,16.9017816 37.1806717,17.316954 L37.1806717,18.951092 C37.1806717,18.951092 37.210197,19.3883908 36.7521566,19.3883908" id="Fill-12" fill="#FFFFFF" sketch:type="MSShapeGroup"></path>
                <path d="M40.7145253,15.8111494 C40.7145253,15.8111494 40.5976212,15.8228161 40.5976212,15.9507471 L40.5976212,19.3883908 L39.9680152,19.3883908 L39.9680152,15.9225862 C39.9680152,15.9225862 39.9496616,15.8111494 39.8391414,15.8111494 L38.1478232,15.8111494 L38.1478232,15.216954 L42.5183586,15.216954 L42.5183586,15.8111494 L40.7145253,15.8111494" id="Fill-13" fill="#FFFFFF" sketch:type="MSShapeGroup"></path>
                <path d="M1.26479798,27.2794828 L1.26479798,31.2525862 L0.047479798,31.2525862 L0.047479798,23.5006897 C0.047479798,23.5006897 0.0594494949,22.5774138 0.915282828,22.5774138 L8.59863131,22.5774138 L8.59863131,23.8402299 L1.69969697,23.8402299 C1.69969697,23.8402299 1.26479798,23.8164943 1.26479798,24.3503448 L1.26479798,25.9675862 L8.59863131,25.9675862 L8.59863131,27.2794828 L1.26479798,27.2794828" id="Fill-14" fill="#FFFFFF" sketch:type="MSShapeGroup"></path>
                <path d="M18.0179848,31.2771264 L11.2056313,31.2771264 C10.3266566,31.2771264 10.3266566,30.3663218 10.3266566,30.3663218 L10.3266566,22.5894828 L11.5555455,22.5894828 L11.5555455,29.6478161 C11.5555455,30.0135057 11.930197,30.0010345 11.930197,30.0010345 L17.3305253,30.0010345 C17.6924091,30.0010345 17.6676717,29.5391954 17.6676717,29.5391954 L17.6676717,22.5894828 L18.8969596,22.5894828 L18.8969596,30.3663218 C18.8969596,31.2771264 18.0179848,31.2771264 18.0179848,31.2771264" id="Fill-15" fill="#FFFFFF" sketch:type="MSShapeGroup"></path>
                <path d="M29.1833182,23.501092 L29.1833182,31.2775287 L27.9536313,31.2775287 L27.9536313,24.3274138 C27.9536313,24.3274138 27.9779697,23.8643678 27.6156869,23.8643678 L22.2153586,23.8643678 C22.2153586,23.8643678 21.8403081,23.853908 21.8403081,24.2175862 L21.8403081,31.2775287 L20.6110202,31.2775287 L20.6110202,23.501092 C20.6110202,23.501092 20.6110202,22.5894828 21.4919899,22.5894828 L28.3031465,22.5894828 C28.3031465,22.5894828 29.1833182,22.5894828 29.1833182,23.501092" id="Fill-16" fill="#FFFFFF" sketch:type="MSShapeGroup"></path>
                <path d="M52.7049697,23.501092 L52.7049697,31.2775287 L51.4772778,31.2775287 L51.4772778,24.3274138 C51.4772778,24.3274138 51.5000202,23.8643678 51.1365404,23.8643678 L45.7362121,23.8643678 C45.7362121,23.8643678 45.3627576,23.853908 45.3627576,24.2175862 L45.3627576,31.2775287 L44.1318737,31.2775287 L44.1318737,23.501092 C44.1318737,23.501092 44.1318737,22.5894828 45.0124444,22.5894828 L51.825197,22.5894828 C51.825197,22.5894828 52.7049697,22.5894828 52.7049697,23.501092" id="Fill-17" fill="#FFFFFF" sketch:type="MSShapeGroup"></path>
                <path d="M31.7619899,31.2288506 C31.7619899,31.2288506 30.8937879,31.1805747 30.8937879,30.3168391 L30.8937879,29.745977 L37.7867374,23.8402299 L30.8937879,23.8402299 L30.8937879,22.5774138 L38.593096,22.5774138 C38.593096,22.5774138 39.5091768,22.6132184 39.4732677,23.5006897 L39.4732677,24.0836207 L32.5938838,29.964023 L39.4732677,29.964023 L39.4732677,31.2288506 L31.7619899,31.2288506" id="Fill-18" fill="#FFFFFF" sketch:type="MSShapeGroup"></path>
                <path d="M41.1985,22.5770115 L42.4142222,22.5770115 L42.4142222,31.2517816 L41.1985,31.2517816 L41.1985,22.5770115 Z" id="Fill-19" fill="#FFFFFF" sketch:type="MSShapeGroup"></path>
                <path d="M55.2517222,31.2521839 C54.3847172,31.2521839 54.3847172,30.3413793 54.3847172,30.3413793 L54.3847172,23.5006897 C54.3847172,23.5006897 54.4090556,22.5774138 55.2517222,22.5774138 L62.963,22.5774138 L62.963,23.839023 L56.049303,23.839023 C56.049303,23.839023 55.615601,23.8164943 55.615601,24.3503448 L55.615601,25.9675862 L62.963,25.9675862 L62.963,27.2794828 L55.615601,27.2794828 L55.615601,29.5146552 C55.615601,29.5146552 55.615601,29.9772989 56.0840152,29.9772989 L62.963,29.9772989 L62.963,31.2521839 L55.2517222,31.2521839" id="Fill-20" fill="#FFFFFF" sketch:type="MSShapeGroup"></path>
            </g>
        </g>
    </g>
</svg>