<?xml version="1.0" encoding="UTF-8" standalone="no"?>
<svg width="100px" height="100px" viewBox="0 0 100 100" version="1.1" xmlns="http://www.w3.org/2000/svg" xmlns:xlink="http://www.w3.org/1999/xlink" xmlns:sketch="http://www.bohemiancoding.com/sketch/ns">
    <!-- Generator: Sketch 3.3.2 (12043) - http://www.bohemiancoding.com/sketch -->
    <title>mobilPlus-clients-advetisers-11</title>
    <desc>Created with Sketch.</desc>
    <defs></defs>
    <g id="utilities" stroke="none" stroke-width="1" fill="none" fill-rule="evenodd" sketch:type="MSPage">
        <g id="mobilPlus-clients-advetisers-11" sketch:type="MSArtboardGroup">
            <rect id="Rectangle-52" fill="#979797" sketch:type="MSShapeGroup" x="0" y="0" width="100" height="100"></rect>
            <g id="Imported-Layers" sketch:type="MSLayerGroup" transform="translate(17.000000, 24.000000)" fill="#FFFFFF">
                <path d="M32.7796345,7.20876984 L34.1905172,0.139188492 L39.4419931,0.165293651 L40.1153103,5.51696825 C40.661069,3.2485119 42.0670276,1.17122024 44.073731,0.145978175 L49.680331,0.152884921 C51.2349517,0.941892857 52.4950621,2.36643849 53.2173862,4.14287698 L53.2107034,0.139188492 L58.2269931,0.139188492 L58.2269931,10.8348115 L61.690069,10.8348115 L67.9082,0.136613095 L26.2741448,0.139188492 L31.5256207,0.165293651 L32.7796345,7.20876984" id="Fill-1" sketch:type="MSShapeGroup"></path>
                <path d="M53.2368483,15.7391865 L53.2289931,11.0382679 C52.1128552,13.8134921 49.687131,15.73825 46.8733379,15.73825 C44.3594483,15.73825 42.1551931,14.2015575 40.9177103,11.8950556 L41.4014483,15.7391865 L36.5419103,15.7391865 L35.9932207,8.59140675 L34.2688345,15.7391865 L31.3165793,15.7652917 L29.6444828,8.59140675 L29.0696483,15.7391865 L24.2101103,15.7391865 L26.2741448,0.139188492 L0.0918,0.108166667 L33.7578966,58.8918333 L58.8394621,15.7391865 L53.2368483,15.7391865" id="Fill-2" sketch:type="MSShapeGroup"></path>
                <path d="M44.3787931,7.67292659 C44.3787931,9.40944643 45.5121655,10.8177202 46.9100345,10.8177202 C48.3077862,10.8177202 49.4411586,9.40944643 49.4411586,7.67292659 C49.4411586,5.93640675 48.3077862,4.52825 46.9100345,4.52825 C45.5121655,4.52825 44.3787931,5.93640675 44.3787931,7.67292659" id="Fill-3" sketch:type="MSShapeGroup"></path>
            </g>
        </g>
    </g>
</svg>